<svg width="850" height="850" viewBox="0 0 850 850" fill="none" xmlns="http://www.w3.org/2000/svg">
<circle cx="425" cy="425" r="425" fill="white"/>
<path d="M398.803 25.2153C397.082 25.3717 391.608 25.919 386.681 26.3099C273.055 36.5528 166.623 97.8537 99.2131 192.072C61.6764 244.46 37.6686 303.884 28.5973 366.827C25.391 388.798 25 395.288 25 425.078C25 454.869 25.391 461.358 28.5973 483.33C50.3372 633.533 157.239 759.731 302.224 806.489C328.187 814.855 355.557 820.563 386.681 824.003C398.803 825.332 451.197 825.332 463.319 824.003C517.043 818.061 562.556 804.768 607.444 781.859C614.326 778.34 615.655 777.402 614.717 776.62C614.091 776.151 584.765 736.821 549.575 689.282L485.606 602.882L405.45 484.268C361.344 419.058 325.059 365.732 324.746 365.732C324.433 365.654 324.12 418.354 323.964 482.704C323.729 595.376 323.651 599.911 322.243 602.569C320.21 606.401 318.646 607.964 315.362 609.685C312.859 610.936 310.67 611.17 298.861 611.17H285.332L281.735 608.903C279.389 607.417 277.669 605.462 276.496 603.195L274.853 599.676L275.01 442.906L275.244 286.057L277.669 283.007C278.92 281.365 281.579 279.254 283.456 278.238C286.662 276.674 287.913 276.518 301.442 276.518C317.395 276.518 320.054 277.143 324.198 281.678C325.371 282.929 368.773 348.296 420.699 427.033C472.625 505.77 543.631 613.281 578.509 666.06L641.852 761.999L645.059 759.887C673.446 741.435 703.475 715.163 727.248 687.796C777.845 629.701 810.455 558.861 821.403 483.33C824.609 461.358 825 454.869 825 425.078C825 395.288 824.609 388.798 821.403 366.827C799.663 216.624 692.761 90.4256 547.776 43.6681C522.204 35.38 494.99 29.6721 464.492 26.2317C456.984 25.4499 405.293 24.5898 398.803 25.2153ZM562.556 267.135C566.31 269.011 569.36 272.608 570.455 276.361C571.08 278.394 571.237 321.868 571.08 419.84L570.846 560.425L546.056 522.425L521.188 484.424V382.23C521.188 316.16 521.5 279.02 521.97 277.221C523.221 272.843 525.958 269.402 529.712 267.369C532.918 265.727 534.091 265.571 546.369 265.571C557.942 265.571 559.976 265.727 562.556 267.135Z" fill="black"/>
</svg>
