<svg width="40" height="40" viewBox="0 0 40 40" fill="none" xmlns="http://www.w3.org/2000/svg">
<path fill-rule="evenodd" clip-rule="evenodd" d="M20 40C31.0457 40 40 31.0457 40 20C40 8.95431 31.0457 0 20 0C8.95431 0 0 8.95431 0 20C0 31.0457 8.95431 40 20 40ZM9.98008 26.595C10.9267 27.0483 12.0601 27.275 13.3801 27.275C14.7934 27.275 16.0201 27.0083 17.0601 26.475C18.1001 25.9283 18.9267 25.2017 19.5401 24.295C20.1534 23.3883 20.5201 22.3883 20.6401 21.295H16.9201C16.7867 22.055 16.3934 22.6617 15.7401 23.115C15.1001 23.5683 14.3134 23.795 13.3801 23.795C12.7801 23.795 12.2467 23.7017 11.7801 23.515C11.3134 23.315 10.9134 23.0283 10.5801 22.655C10.2601 22.2817 10.0134 21.835 9.84008 21.315C9.68008 20.795 9.60008 20.2083 9.60008 19.555C9.60008 18.9017 9.68008 18.315 9.84008 17.795C10.0134 17.275 10.2534 16.835 10.5601 16.475C10.8801 16.1017 11.2667 15.815 11.7201 15.615C12.1867 15.415 12.7067 15.315 13.2801 15.315C13.8934 15.315 14.4401 15.4217 14.9201 15.635C15.4001 15.835 15.7934 16.1217 16.1001 16.495C16.4067 16.8683 16.6067 17.3083 16.7001 17.815H20.4201C20.3134 16.6283 19.9467 15.5883 19.3201 14.695C18.6934 13.7883 17.8601 13.0883 16.8201 12.595C15.7934 12.0883 14.6134 11.835 13.2801 11.835C12.0267 11.835 10.9334 12.0483 10.0001 12.475C9.06674 12.9017 8.28674 13.475 7.66008 14.195C7.04674 14.915 6.58674 15.7217 6.28008 16.615C5.98674 17.495 5.84008 18.395 5.84008 19.315V19.755C5.84008 20.5817 5.98674 21.435 6.28008 22.315C6.57341 23.195 7.02674 24.015 7.64008 24.775C8.25341 25.5217 9.03341 26.1283 9.98008 26.595ZM20.3199 12.275L24.5599 26.875H30.5599L34.5199 12.275H30.7999L27.9239 23.915H27.2497L24.1599 12.275H20.3199Z" fill="#FDFDFE"/>
</svg>
