<svg width="64" height="64" viewBox="0 0 64 64" fill="none" xmlns="http://www.w3.org/2000/svg">
<path fill-rule="evenodd" clip-rule="evenodd" d="M32 64C49.6731 64 64 49.6731 64 32C64 14.3269 49.6731 0 32 0C14.3269 0 0 14.3269 0 32C0 49.6731 14.3269 64 32 64ZM33.8125 15.3125C33.8125 14.0334 34.8459 13 36.125 13H47.6875C48.9666 13 50 14.0334 50 15.3125V26.875C50 28.1541 48.9666 29.1875 47.6875 29.1875C46.4084 29.1875 45.375 28.1541 45.375 26.875V20.8986L30.8279 35.4529C29.9246 36.3563 28.4576 36.3563 27.5543 35.4529C26.651 34.5496 26.651 33.0826 27.5543 32.1793L42.1014 17.625H36.125C34.8459 17.625 33.8125 16.5916 33.8125 15.3125ZM13 21.0938C13 17.8996 15.5871 15.3125 18.7812 15.3125H26.875C28.1541 15.3125 29.1875 16.3459 29.1875 17.625C29.1875 18.9041 28.1541 19.9375 26.875 19.9375H18.7812C18.1453 19.9375 17.625 20.4578 17.625 21.0938V44.2188C17.625 44.8547 18.1453 45.375 18.7812 45.375H41.9062C42.5422 45.375 43.0625 44.8547 43.0625 44.2188V36.125C43.0625 34.8459 44.0959 33.8125 45.375 33.8125C46.6541 33.8125 47.6875 34.8459 47.6875 36.125V44.2188C47.6875 47.4129 45.1004 50 41.9062 50H18.7812C15.5871 50 13 47.4129 13 44.2188V21.0938Z" fill="#FDFDFE"/>
</svg>
