<svg width="64" height="64" viewBox="0 0 64 64" fill="none" xmlns="http://www.w3.org/2000/svg">
<path fill-rule="evenodd" clip-rule="evenodd" d="M32 64C49.6731 64 64 49.6731 64 32C64 14.3269 49.6731 0 32 0C14.3269 0 0 14.3269 0 32C0 49.6731 14.3269 64 32 64ZM12.5937 15C11.201 15 9.943 15.7947 9.34996 17.0447C8.74794 18.2858 8.93663 19.768 9.80822 20.8305L26.2515 40.7954V47.8581C26.2515 48.7599 26.6739 49.6082 27.4017 50.1439L33.1524 54.4298C34.0239 55.0816 35.1831 55.1798 36.1625 54.6976C37.1419 54.2155 37.7529 53.2244 37.7529 52.144V40.7954L54.1872 20.8395C55.0678 19.768 55.2475 18.2947 54.6545 17.0447C54.0614 15.7947 52.8035 15 51.4107 15H12.5937Z" fill="#FDFDFE"/>
</svg>
