<svg width="18" height="38" viewBox="0 0 18 38" fill="none" xmlns="http://www.w3.org/2000/svg">
<path d="M8.26778 33.3484C7.81122 33.0212 7.38184 32.6603 6.96747 32.2834C5.21903 30.6944 3.74715 28.8841 2.60903 26.8084C2.03528 25.7622 1.57122 24.6672 1.21872 23.5272C1.07715 23.0678 1.00872 22.5916 0.932779 22.1181C0.772466 21.1084 0.654341 20.0941 0.568091 19.0759C0.531529 18.6419 0.510904 18.205 0.489342 17.77C0.465904 17.2825 0.519341 16.7987 0.566216 16.315C0.657153 15.3719 0.800591 14.4362 1.00122 13.51C1.79434 9.85562 3.38997 6.60249 5.86028 3.78624C6.39559 3.17593 6.97872 2.61343 7.59559 2.08655C7.80465 1.90843 8.00903 1.72562 8.19559 1.52405C8.54059 1.14999 8.75247 0.716866 8.77778 0.201241C8.77965 0.170304 8.78153 0.139366 8.78997 0.109366C8.79653 0.0849914 8.81715 0.0662412 8.84247 0.0634287C8.87153 0.0606162 8.88653 0.0812415 8.89403 0.106554C8.9109 0.159991 8.92778 0.212491 8.94465 0.265929C8.88653 0.355929 8.89778 0.458116 8.89872 0.556554C8.9034 1.28499 8.90809 2.01437 8.92778 2.7428C8.96809 4.27468 8.92028 5.80843 8.96434 7.34124C9.01215 8.98562 8.95497 10.6309 9.00372 12.2762C9.04872 13.7837 9.0009 15.2922 9.03747 16.8006C9.08059 18.5819 9.03559 20.365 9.08059 22.1472C9.11528 23.5178 9.0609 24.8884 9.11434 26.26C9.14528 27.0503 9.11809 27.8434 9.11715 28.6347C9.00747 28.7266 9.02247 28.8597 9.01215 28.9797C8.97653 29.395 8.95684 29.8112 8.9184 30.2266C8.84715 31.0141 8.69809 31.7903 8.55934 32.5684C8.50965 32.8459 8.43747 33.115 8.26778 33.3484Z" fill="#6CAC48"/>
<path d="M9.11721 28.6347C9.11814 27.8434 9.14533 27.0503 9.11439 26.26C9.06096 24.8884 9.11533 23.5178 9.08064 22.1472C9.03564 20.365 9.08064 18.5819 9.03752 16.8006C9.00096 15.2922 9.04877 13.7838 9.00377 12.2763C8.95502 10.6309 9.01221 8.98469 8.96439 7.34125C8.92033 5.8075 8.96814 4.27469 8.92783 2.74281C8.90908 2.01344 8.90346 1.285 8.89877 0.556563C8.89877 0.458126 8.88658 0.355938 8.94471 0.265938C8.99533 0.307188 9.01502 0.368125 9.04408 0.422501C9.27096 0.845313 9.50346 1.26531 9.71908 1.69469C9.96846 2.19063 10.2985 2.62469 10.6875 3.01656C11.2275 3.56125 11.7488 4.12281 12.2503 4.70406C13.5703 6.23594 14.6419 7.92438 15.4763 9.76469C16.1466 11.2441 16.6997 12.7656 17.071 14.3481C17.3072 15.3513 17.4506 16.3684 17.5097 17.3978C17.5603 18.2772 17.5575 19.1556 17.4938 20.0331C17.2556 23.2966 16.2263 26.2825 14.3475 28.9684C13.6341 29.9875 12.8372 30.9363 11.9353 31.795C11.4966 32.2122 11.0288 32.5956 10.5394 32.9519C10.5038 32.9772 10.47 33.0053 10.425 33.0128C10.1569 32.8938 9.97408 32.6856 9.83064 32.4381C9.69002 32.1944 9.57939 31.9366 9.50252 31.6656C9.22221 30.6756 9.11158 29.6631 9.11627 28.6366L9.11721 28.6347Z" fill="#599636"/>
<path d="M9.1172 28.6347C9.11251 29.6613 9.22313 30.6738 9.50345 31.6638C9.58032 31.9347 9.69095 32.1925 9.83157 32.4363C9.97407 32.6838 10.1578 32.8919 10.4259 33.0109C10.4044 33.0484 10.3847 33.0878 10.3603 33.1234C10.0706 33.5509 9.92063 34.0253 9.87001 34.5372C9.84376 34.7988 9.82689 35.0584 9.8297 35.32C9.83345 35.6875 9.83157 36.0559 9.8297 36.4234C9.82782 36.8594 9.82407 37.2963 9.87751 37.7303C9.8822 37.7678 9.88688 37.8053 9.88501 37.8419C9.87845 37.9975 9.80626 38.0434 9.67126 37.9731C9.47626 37.8719 9.25876 37.8344 9.0572 37.7528C8.86126 37.6731 8.83126 37.6525 8.83407 37.4397C8.84157 36.865 8.80782 36.2941 8.75063 35.7231C8.67845 35.0088 8.56032 34.3038 8.34001 33.6184C8.31189 33.5294 8.2922 33.4384 8.26782 33.3484C8.43751 33.1159 8.5097 32.8459 8.55938 32.5684C8.69907 31.7913 8.8472 31.0141 8.91845 30.2266C8.95595 29.8113 8.97657 29.395 9.0122 28.9797C9.02251 28.8597 9.00845 28.7266 9.1172 28.6347Z" fill="#C0BDBD"/>
</svg>
