<svg width="34" height="30" viewBox="0 0 34 30" fill="none" xmlns="http://www.w3.org/2000/svg">
<path d="M33.6875 14.505V15.5091C33.6369 15.4781 33.6406 15.5241 33.6369 15.5484C33.4981 16.3247 33.1053 16.9659 32.5794 17.535C31.9803 18.1838 31.2622 18.6769 30.4953 19.1016C29.3253 19.7494 28.0784 20.2069 26.7978 20.5781C26.7125 20.6025 26.6759 20.6222 26.7022 20.7253C26.93 21.6356 27.1062 22.5553 27.2019 23.4891C27.3106 24.5616 27.3265 25.6313 27.1081 26.6934C26.9684 27.3769 26.7312 28.0219 26.314 28.59C25.8425 29.2322 25.22 29.6494 24.4428 29.8359C24.4072 29.8444 24.3406 29.8172 24.3462 29.8969H22.8687C22.8903 29.8303 22.8322 29.85 22.8078 29.8453C21.8787 29.6728 21.0359 29.2847 20.2306 28.8066C19.0662 28.1156 18.0331 27.2559 17.0609 26.3203C16.9794 26.2416 16.9372 26.2406 16.8547 26.3203C16.0822 27.0666 15.2675 27.7622 14.3759 28.365C13.3672 29.0466 12.3087 29.6213 11.0928 29.8472C11.0703 29.8509 11.0234 29.8453 11.0459 29.8969H9.56842C9.54217 29.8509 9.54217 29.85 9.49999 29.8406C9.22717 29.7797 8.96561 29.6878 8.71811 29.5575C7.88936 29.1216 7.37561 28.4213 7.05592 27.5625C6.65561 26.4881 6.59842 25.3697 6.65467 24.2409C6.7128 23.0691 6.91436 21.9178 7.20217 20.7816C7.23967 20.6316 7.19374 20.5959 7.0653 20.5594C6.16249 20.3063 5.28217 19.9913 4.42717 19.605C3.55342 19.2103 2.71811 18.7491 1.97655 18.1341C1.14311 17.4441 0.478423 16.6397 0.274986 15.5353C0.271236 15.5166 0.270298 15.4688 0.227173 15.5091V14.505C0.278735 14.5294 0.273111 14.4825 0.276861 14.46C0.426861 13.6181 0.868423 12.9375 1.45717 12.3422C2.28592 11.5041 3.28717 10.9256 4.34561 10.4363C5.23905 10.0238 6.1653 9.69844 7.11124 9.4275C7.18436 9.40687 7.24436 9.39844 7.2153 9.285C6.98374 8.37094 6.80749 7.44656 6.7128 6.50813C6.60405 5.43656 6.58905 4.36688 6.80749 3.30469C6.94999 2.61188 7.19186 1.95938 7.61936 1.38656C8.0778 0.773438 8.67874 0.370313 9.42124 0.179063C9.45499 0.170626 9.52342 0.196875 9.51217 0.11625H11.1012C11.0787 0.167813 11.1256 0.16125 11.1481 0.165937C12.02 0.331875 12.8159 0.690937 13.5762 1.13344C14.7837 1.83562 15.8515 2.71875 16.8537 3.68438C16.9362 3.76406 16.9765 3.765 17.059 3.68438C17.8194 2.94563 18.6247 2.25938 19.5022 1.66219C20.5044 0.979688 21.5581 0.404062 22.7647 0.165937C22.7872 0.16125 22.834 0.167813 22.8115 0.11625H24.4006C24.4212 0.162188 24.4203 0.163125 24.4644 0.174375C24.7128 0.235313 24.9528 0.319688 25.1806 0.437813C26.0169 0.871875 26.5344 1.57406 26.8569 2.4375C27.2562 3.50719 27.3144 4.62 27.26 5.745C27.2028 6.93563 26.9919 8.10375 26.7059 9.25875C26.6797 9.36562 26.7012 9.40125 26.8034 9.42938C27.5712 9.645 28.325 9.90281 29.06 10.2131C30.1719 10.6819 31.234 11.2378 32.1434 12.0459C32.8812 12.7003 33.454 13.4606 33.6369 14.4609C33.6406 14.4844 33.635 14.5303 33.6865 14.505H33.6875ZM17.0084 20.3869C17.9403 20.3794 18.9059 20.3503 19.8697 20.2819C19.9634 20.2753 20.0187 20.2453 20.0703 20.1675C21.1606 18.5494 22.1356 16.8656 22.9887 15.1106C23.0272 15.0309 23.029 14.9728 22.9897 14.8931C22.1356 13.1391 21.1606 11.4553 20.0722 9.83625C20.0187 9.7575 19.9606 9.7275 19.8697 9.72094C19.3044 9.6825 18.7381 9.65344 18.1719 9.63844C16.7872 9.60094 15.4034 9.6225 14.0215 9.72563C13.9381 9.73219 13.8884 9.76219 13.8444 9.83063C13.7103 10.0416 13.5678 10.2478 13.4309 10.4578C12.5056 11.8828 11.6684 13.3575 10.9269 14.8866C10.8969 14.9494 10.8687 15.0019 10.9072 15.0788C11.7725 16.8534 12.7559 18.5588 13.8622 20.1937C13.895 20.2425 13.9287 20.2716 13.9934 20.2762C14.9853 20.3466 15.979 20.3794 17.0075 20.385L17.0084 20.3869ZM8.08999 24.7416C8.08905 25.44 8.13217 26.0456 8.28686 26.6381C8.4153 27.1331 8.60561 27.6 8.97874 27.9666C9.47092 28.4494 10.0775 28.53 10.7253 28.4325C11.4134 28.3294 12.0425 28.0566 12.6462 27.7238C13.8265 27.0722 14.8522 26.2181 15.8272 25.2966C15.9209 25.2084 15.9331 25.1616 15.8394 25.0603C14.8756 24.0197 13.9981 22.9078 13.1769 21.7519C13.1197 21.6713 13.0512 21.6553 12.9669 21.6459C12.4409 21.5878 11.914 21.5372 11.39 21.465C10.5031 21.3422 9.62092 21.1884 8.74717 20.9888C8.6703 20.9709 8.64124 20.9841 8.62249 21.06C8.32249 22.2994 8.10405 23.55 8.08999 24.7416ZM32.2344 15.0066C32.2231 14.4853 32.0065 14.0569 31.6944 13.6687C31.3569 13.2478 30.9462 12.9075 30.499 12.6103C29.2269 11.7619 27.8131 11.2397 26.3572 10.8113C26.255 10.7813 26.2606 10.8488 26.2447 10.8994C25.8144 12.2719 25.2865 13.6078 24.6865 14.9147C24.6594 14.9728 24.6556 15.0216 24.6837 15.0834C25.2856 16.395 25.8162 17.7338 26.2437 19.1128C26.2681 19.1906 26.2972 19.2122 26.3787 19.1878C27.5244 18.8513 28.6447 18.4491 29.6965 17.8781C30.4231 17.4844 31.1065 17.0316 31.6456 16.3922C31.9859 15.9891 32.2231 15.54 32.2334 15.0066H32.2344ZM10.294 1.53656C10.1347 1.53281 9.97811 1.54969 9.82342 1.5825C9.18217 1.72031 8.77999 2.13937 8.51655 2.71125C8.20905 3.37688 8.11624 4.08938 8.09561 4.81219C8.0553 6.21563 8.29624 7.58531 8.62155 8.94375C8.64874 9.05625 8.71342 9.02156 8.77717 9.0075C10.1731 8.69156 11.5878 8.49094 13.0109 8.34937C13.0822 8.34188 13.1272 8.31938 13.1694 8.26031C14.0019 7.08938 14.8925 5.96531 15.8675 4.90969C15.9378 4.83375 15.9228 4.79625 15.8553 4.73531C15.5928 4.5 15.3387 4.25344 15.0725 4.02187C14.209 3.26906 13.2969 2.58469 12.2628 2.08031C11.6412 1.7775 10.9981 1.54781 10.295 1.53656H10.294ZM25.8256 24.8663C25.8116 23.5566 25.5922 22.3013 25.2912 21.0581C25.2715 20.9784 25.2387 20.9756 25.1647 20.9916C24.3762 21.1659 23.5831 21.3122 22.7834 21.4275C22.1815 21.5138 21.5778 21.5888 20.9731 21.6478C20.8944 21.6553 20.8128 21.6469 20.7519 21.7322C19.9156 22.9116 19.0184 24.0422 18.0378 25.1062C17.9853 25.1625 17.9834 25.1953 18.0406 25.2506C18.9978 26.1628 20.0065 27.0094 21.1615 27.6647C21.8684 28.065 22.6034 28.3941 23.4265 28.4597C24.2234 28.5234 24.8525 28.2394 25.2687 27.5372C25.3709 27.3647 25.4525 27.1838 25.5181 26.9953C25.7628 26.2978 25.819 25.5731 25.8247 24.8672L25.8256 24.8663ZM25.8228 5.16C25.8228 5.09531 25.8247 5.02969 25.8228 4.965C25.804 4.22344 25.73 3.49125 25.4365 2.80031C25.0287 1.84031 24.2965 1.42594 23.2728 1.56C22.5809 1.65094 21.95 1.9125 21.3434 2.24063C20.1115 2.90625 19.0484 3.795 18.0406 4.755C17.9684 4.82344 17.9994 4.85531 18.049 4.90875C19.0212 5.96719 19.9128 7.08938 20.7453 8.26031C20.7865 8.31844 20.8306 8.34375 20.9028 8.35031C21.679 8.42531 22.4525 8.52 23.2231 8.64375C23.869 8.74781 24.5122 8.865 25.1497 9.01031C25.2134 9.02531 25.2687 9.04125 25.2931 8.94281C25.5931 7.69875 25.8115 6.44438 25.8237 5.16094L25.8228 5.16ZM1.67936 14.9878C1.68311 15.4678 1.87249 15.8794 2.15655 16.2544C2.58217 16.815 3.13249 17.2312 3.72592 17.595C4.91374 18.3225 6.20936 18.795 7.5378 19.1888C7.62592 19.215 7.64749 19.1803 7.66905 19.1091C8.09749 17.7309 8.62811 16.3913 9.22999 15.0797C9.2553 15.0244 9.25624 14.9803 9.22999 14.9241C8.62811 13.6125 8.09749 12.2738 7.66905 10.8947C7.6428 10.8103 7.6128 10.7897 7.52467 10.8197C7.28373 10.9013 7.03717 10.9678 6.79436 11.0466C5.64592 11.4234 4.53217 11.8791 3.51405 12.5428C2.96655 12.9 2.46217 13.3088 2.08249 13.8506C1.84342 14.1919 1.68874 14.5641 1.67842 14.9878H1.67936ZM15.0125 8.20781C16.3184 8.15438 17.5953 8.15531 18.8712 8.20594C18.8797 8.15906 18.8534 8.14219 18.8375 8.12156C18.2722 7.37813 17.6759 6.66 17.0506 5.96719C16.9756 5.88375 16.9381 5.88656 16.864 5.96813C16.3184 6.57094 15.799 7.19531 15.2965 7.83469C15.2056 7.95 15.1194 8.06813 15.0125 8.20781ZM10.1019 13.2909C10.7047 12.1275 11.3469 11.0241 12.0378 9.93188C11.9947 9.93188 11.9759 9.93 11.9572 9.93188C11.0122 10.05 10.0756 10.2122 9.14467 10.4119C9.05092 10.4316 9.05842 10.4738 9.08186 10.5469C9.32374 11.3119 9.60124 12.0638 9.9003 12.8081C9.96217 12.9619 10.0278 13.1137 10.1009 13.2909H10.1019ZM23.809 13.2844C23.8287 13.2441 23.84 13.2244 23.8484 13.2038C24.2131 12.3422 24.5365 11.4647 24.8244 10.5741C24.86 10.4644 24.8506 10.4278 24.7287 10.4025C24.035 10.2544 23.3365 10.1306 22.6353 10.0228C22.3906 9.98531 22.144 9.95625 21.8665 9.91969C22.5706 11.0269 23.21 12.1322 23.809 13.2844ZM21.8759 20.0709C21.9031 20.0756 21.9134 20.0784 21.9219 20.0775C22.8706 19.9584 23.8128 19.7972 24.7475 19.5966C24.8394 19.5769 24.8637 19.5525 24.8309 19.4513C24.6172 18.7894 24.3856 18.1341 24.1278 17.4881C24.0275 17.2359 23.9253 16.9838 23.8137 16.7081C23.2081 17.8734 22.5669 18.9816 21.875 20.07L21.8759 20.0709ZM10.1037 16.7184C10.0831 16.7625 10.0728 16.7822 10.0644 16.8028C9.70155 17.6606 9.38186 18.5344 9.09124 19.4194C9.04811 19.5506 9.08655 19.5806 9.20467 19.605C9.85811 19.7409 10.5144 19.8628 11.1753 19.9641C11.4565 20.0072 11.7387 20.0419 12.0472 20.085C11.69 19.5188 11.3562 18.9741 11.0375 18.4209C10.7178 17.8669 10.4103 17.3063 10.1047 16.7194L10.1037 16.7184ZM18.9031 21.795C17.5944 21.8541 16.3156 21.8503 15.0125 21.7969C15.6219 22.6013 16.2425 23.3513 16.8987 24.0722C16.9447 24.1228 16.969 24.1237 17.0159 24.0722C17.6722 23.3513 18.2928 22.6013 18.9031 21.795Z" fill="#60D8F9"/>
<path d="M16.9682 12.0216C18.6172 12.0272 19.9457 13.3669 19.9391 15.0169C19.9335 16.6538 18.59 17.9897 16.9522 17.9859C15.3013 17.9822 13.9654 16.6341 13.9738 14.9794C13.9822 13.3406 15.3238 12.015 16.9682 12.0206V12.0216Z" fill="#60D8F9"/>
</svg>
