<?xml version="1.0" encoding="UTF-8"?>
<svg id="Calque_2" data-name="Calque 2" xmlns="http://www.w3.org/2000/svg" version="1.1" viewBox="0 0 600.6 731.8">
  <defs>
    <style>
    <!-- Détecte si mode sombre / clair et change la couleur de l'icone en conséquence -->
	.st0{fill:#000;
        stroke-width: 0px;}
	@media(prefers-color-scheme: dark) {
		.st0{fill:#fff;}
	}
    </style>
  </defs>
  <g id="Calque_1-2" data-name="Calque 1-2">
    <path class="st0" d="M300.3,636.4c-13.8,0-25-11.2-25-25v-255h-57.6c-.5,1.1-.8,2.1-1.2,3-1,2.7-10.2,27.5-26,53.9-21,35.1-44.1,57.1-68.6,65.3-21,7-42.5,4-62.2-8.9-30.5-19.7-43.1-53.3-33-87.6,11-37.4,51.2-75.3,116.2-75.6,10.1,0,25.3-.1,42.5-.1,8.6-18.1,19.5-40.6,31.4-64.9,23.3-47.7,55.2-113,59.4-128.1,3.4-12,15.1-19.8,27.5-18.1,12.4,1.7,21.6,12.3,21.6,24.8v208.2c.1,1,.2,2.1.2,3.1s-.1,2.1-.2,3.1v276.9c0,13.8-11.2,25-25,25ZM163.7,356.4h-20.6c-18.5.1-35.1,4.7-47.9,13.4-10.4,7-17.7,16.4-20.6,26.3-2.7,9.1-2.7,22,12.2,31.7,8.8,5.7,14.6,4.9,19.1,3.4,22.6-7.5,45.6-47.3,57.8-74.8ZM240.8,306.4h34.5v-70.8c-4.3,8.8-8.8,18.1-13.6,27.8-7.1,14.7-14.4,29.4-20.9,43Z"/>
    <path class="st0" d="M300.3,636.8c-1.1,0-2.3,0-3.4-.2-12.4-1.7-21.6-12.3-21.6-24.8v-208.2c-.1-1-.2-2.1-.2-3.1s.1-2.1.2-3.1V120.5c0-13.8,11.2-25,25-25s25,11.2,25,25v255h57.6c.5-1.1.8-2.1,1.2-3,1-2.7,10.2-27.5,26-53.9,21-35.1,44.1-57.1,68.6-65.3,21-7,42.5-4,62.2,8.9,30.4,19.8,43.1,53.4,33,87.7-11,37.4-51.2,75.3-116.2,75.6-10.1,0-25.3.1-42.5.1-8.6,18.1-19.5,40.6-31.4,64.9-23.3,47.7-55.2,113-59.4,128.1-3.1,10.8-13,18.2-24.1,18.2ZM325.3,425.5v70.8c4.3-8.8,8.8-18.1,13.6-27.8,7.1-14.6,14.3-29.4,20.9-42.9-12.8-.1-24.7-.1-34.5-.1ZM500.7,299.6c-2.3,0-4.4.5-6.2,1.1-22.5,7.5-45.5,47.4-57.7,74.8h20.6c18.5-.1,35.1-4.7,47.9-13.4,10.4-7,17.7-16.4,20.6-26.3,2.7-9.1,2.7-22-12.2-31.7-5.3-3.4-9.5-4.5-13-4.5Z"/>
    <circle class="st0" cx="300.3" cy="53.4" r="25"/>
    <circle class="st0" cx="300.3" cy="678.4" r="25"/>
  </g>
</svg>