<svg width="48" height="48" viewBox="0 0 48 48" fill="none" xmlns="http://www.w3.org/2000/svg">
<path d="M17.4833 26.4836C16.7592 26.4802 16.0352 26.4755 15.3104 26.4748C13.8697 26.4734 12.4297 26.4721 10.989 26.4775C10.8293 26.4775 10.7463 26.4585 10.7334 26.2667C10.5995 24.2434 10.4574 22.2207 10.3146 20.1974C10.235 19.0667 10.1562 17.9361 10.0637 16.8068C10.044 16.5695 10.0875 16.4913 10.3493 16.4927C12.6249 16.5043 14.9004 16.4995 17.176 16.4988C17.278 16.4988 17.38 16.4934 17.482 16.49C17.7804 16.4934 18.0782 16.4995 18.3767 16.5002C20.483 16.5009 22.5893 16.5043 24.6956 16.4954C24.9247 16.4947 24.9498 16.5593 24.9308 16.7687C24.856 17.6172 24.7962 18.4671 24.7506 19.3176C24.7398 19.5162 24.6908 19.5699 24.4909 19.5692C22.2568 19.5617 20.0227 19.5644 17.7879 19.5651C17.6859 19.5651 17.5839 19.5719 17.482 19.5753C16.1616 19.5726 14.8406 19.5712 13.5203 19.5631C13.3666 19.5624 13.3381 19.6141 13.3516 19.7568C13.3904 20.1641 13.4128 20.572 13.4421 20.9799C13.4951 21.719 13.5495 22.4587 13.5991 23.1977C13.608 23.331 13.629 23.4133 13.8011 23.4119C15.0276 23.4017 16.2548 23.4017 17.482 23.399C17.9592 23.4024 18.4365 23.4085 18.9138 23.4092C20.6706 23.4105 22.4275 23.4139 24.1843 23.4037C24.4039 23.4024 24.4562 23.4629 24.4399 23.6723C24.3522 24.7588 24.274 25.8466 24.1958 26.9337C24.1381 27.7407 24.0843 28.5484 24.0286 29.3555C23.9558 30.4093 23.8811 31.4631 23.8137 32.5169C23.8035 32.674 23.7233 32.7277 23.588 32.7726C21.5518 33.4497 19.5175 34.133 17.4833 34.8143C16.5349 34.4913 15.5871 34.1657 14.638 33.8461C13.5665 33.4851 12.495 33.1248 11.4194 32.7753C11.2447 32.7182 11.1916 32.6352 11.1815 32.4551C11.1311 31.5882 11.0679 30.722 10.9972 29.8565C10.9822 29.6682 11.006 29.5921 11.2256 29.5955C12.0939 29.6091 12.9628 29.6063 13.8316 29.5968C14.0091 29.5948 14.0839 29.6451 14.0628 29.8212C14.0043 30.3182 14.243 30.531 14.7175 30.6602C15.5688 30.8927 16.3982 31.2068 17.2379 31.4828C17.3167 31.5087 17.3922 31.5597 17.4826 31.5393C17.4996 31.5406 17.518 31.5481 17.533 31.5433C18.6004 31.1898 19.6664 30.8315 20.7359 30.4841C20.8583 30.4446 20.863 30.3746 20.8705 30.2774C20.914 29.6839 20.965 29.091 21.0065 28.4975C21.0493 27.8869 21.084 27.2757 21.1234 26.6645C21.1302 26.5584 21.1465 26.4687 20.9807 26.47C19.8147 26.4795 18.6486 26.4802 17.4833 26.4836Z" fill="#FEFEFD"/>
<path d="M24 0C10.7449 0 0 10.7449 0 24C0 37.2551 10.7449 48 24 48C37.2551 48 48 37.2551 48 24C48 10.7449 37.2551 0 24 0ZM17.4323 38.81C17.3548 38.7773 17.2793 38.7393 17.1998 38.7127C14.0798 37.6861 10.9605 36.6581 7.83637 35.6417C7.61133 35.5683 7.53246 35.4663 7.51751 35.2385C7.40057 33.4776 7.27207 31.7181 7.14833 29.9578C7.02187 28.1636 6.89813 26.3694 6.77099 24.5752C6.62617 22.5348 6.47728 20.4938 6.3311 18.4535C6.19853 16.6001 6.07207 14.7461 5.92929 12.8934C5.91093 12.6527 5.97144 12.6024 6.20465 12.6024C9.87943 12.6099 13.5549 12.6078 17.2297 12.6078C17.3147 12.6078 17.3997 12.6133 17.4846 12.616C17.9918 12.6146 18.4984 12.6126 19.0056 12.6105C19.0463 12.5861 19.1021 12.5745 19.1776 12.5813C19.2197 12.5847 19.2626 12.5813 19.3054 12.5813C26.759 12.5813 34.2119 12.5813 41.6655 12.5813C42.0496 12.5813 42.0714 12.6146 42.0394 12.9892C41.9477 14.0499 41.8518 15.1105 41.7593 16.1711C41.6662 17.2399 41.5662 18.3087 41.4717 19.3774C41.3793 20.4211 41.2882 21.4647 41.1971 22.5083C41.1039 23.5771 41.004 24.6459 40.9095 25.7147C40.817 26.7583 40.7266 27.8019 40.6348 28.8456C40.5586 29.711 40.4764 30.5759 40.4009 31.4414C40.3254 32.3069 40.2445 33.1717 40.1759 34.0378C40.1255 34.6661 40.0542 35.2929 40.0107 35.9218C39.9937 36.1639 39.8801 36.3175 39.6218 36.3896C37.5855 36.9586 35.5486 37.527 33.5116 38.0934C33.0187 38.2307 32.5231 38.3599 32.0349 38.5108C31.5603 38.6577 31.0729 38.7229 30.5881 38.8086H30.3835C27.9835 38.3592 25.68 37.5454 23.3222 36.9362C23.3011 36.9308 23.28 36.9246 23.2589 36.9192C22.1684 37.2768 21.0778 37.6351 19.9887 37.9961C19.1857 38.262 18.3726 38.4965 17.5853 38.8086H17.4826" fill="#FDFDFE"/>
<path d="M30.482 17.4255C32.8099 17.4255 35.1379 17.4289 37.4651 17.4207C37.6922 17.4201 37.7439 17.4649 37.7214 17.7029C37.5154 19.9091 37.3271 22.1174 37.1313 24.3243C36.9096 26.8202 36.6812 29.3154 36.4657 31.8119C36.4426 32.0784 36.3494 32.1954 36.0809 32.2667C34.288 32.7467 32.5013 33.2471 30.7132 33.7448C30.5609 33.787 30.4215 33.7938 30.2651 33.7496C28.445 33.241 26.6236 32.7359 24.8009 32.2382C24.6214 32.1892 24.535 32.1185 24.5187 31.922C24.4004 30.5208 24.2726 29.1202 24.1434 27.7197C24.1291 27.564 24.1692 27.5096 24.3331 27.5109C25.1687 27.5177 26.0043 27.5184 26.8398 27.5109C27.0139 27.5096 27.0492 27.581 27.0615 27.736C27.1118 28.39 27.1798 29.0434 27.2315 29.6975C27.2444 29.8647 27.3028 29.947 27.4735 29.9912C28.4213 30.2373 29.3656 30.4956 30.31 30.7533C30.4296 30.7859 30.5418 30.7826 30.6608 30.7506C31.6052 30.4936 32.5495 30.2352 33.4973 29.9898C33.6673 29.9456 33.7291 29.8647 33.7468 29.6988C33.8719 28.4954 33.9984 27.292 34.1391 26.09C34.1704 25.8235 33.9936 25.9159 33.8869 25.9159C30.7234 25.92 27.5598 25.9295 24.397 25.935C23.9054 25.9356 24.0101 26.0097 23.9503 25.5413C23.8653 24.8737 23.8048 24.2026 23.7375 23.5329C23.7042 23.1984 23.7076 23.1984 24.0339 23.1943C27.3844 23.1535 30.7349 23.1087 34.0861 23.0774C34.3621 23.0747 34.4199 22.9809 34.4321 22.7293C34.4702 21.9631 34.5232 21.1975 34.5987 20.434C34.6232 20.1852 34.579 20.1233 34.322 20.1246C31.0905 20.1444 27.859 20.1512 24.6275 20.162C24.295 20.1634 23.9626 20.1593 23.6301 20.1682C23.4887 20.1716 23.4139 20.1444 23.4037 19.9798C23.3541 19.1803 23.2969 18.3807 23.2344 17.5819C23.2194 17.3922 23.3425 17.4262 23.4479 17.4262C24.1556 17.4248 24.8634 17.4255 25.5712 17.4255C27.2083 17.4255 28.8455 17.4255 30.4827 17.4255H30.482Z" fill="#F9F9F9"/>
</svg>
