<svg width="48" height="48" viewBox="0 0 48 48" fill="none" xmlns="http://www.w3.org/2000/svg">
<path d="M18.5868 26.7441C18.5868 27.8737 18.5887 29.0025 18.5859 30.1322C18.5849 30.6225 18.509 31.1016 18.314 31.5562C18.0337 32.2106 17.5556 32.6597 16.8918 32.9109C16.4212 33.0891 15.9318 33.1434 15.4321 33.1341C15.0478 33.1266 14.6709 33.0703 14.3062 32.9466C13.5534 32.6906 12.9928 32.205 12.6009 31.5178C12.5634 31.4522 12.5315 31.3819 12.494 31.3162C12.4724 31.2787 12.4771 31.2609 12.5156 31.2384C12.8756 31.0228 13.2337 30.8053 13.5928 30.5887C13.7606 30.4875 13.9293 30.3862 14.0962 30.2831C14.1281 30.2634 14.1412 30.2662 14.159 30.2991C14.2481 30.4594 14.3446 30.6169 14.4496 30.7678C14.7506 31.1981 15.1631 31.3659 15.6787 31.2994C15.7949 31.2844 15.9084 31.26 16.0162 31.2122C16.2768 31.095 16.4109 30.8784 16.4803 30.6131C16.5328 30.4134 16.5449 30.2081 16.5449 30.0028C16.5449 27.7191 16.5449 25.4362 16.5449 23.1525C16.5449 23.1012 16.5715 23.0756 16.6246 23.0756C17.2603 23.0756 17.8959 23.0756 18.5306 23.0747C18.5784 23.0747 18.5887 23.0878 18.5887 23.1337C18.5878 24.3375 18.5878 25.5412 18.5878 26.745L18.5868 26.7441Z" fill="#FDFDFE"/>
<path d="M24 0C10.7456 0 0 10.7456 0 24C0 37.2544 10.7456 48 24 48C37.2544 48 48 37.2544 48 24C48 10.7456 37.2544 0 24 0ZM40.2188 34.875H20.8125C20.7216 34.875 20.6334 34.8628 20.5481 34.8422C15.9647 34.8422 11.3812 34.8422 6.79875 34.8422C6.75937 34.8422 6.75 34.8328 6.75 34.7934C6.75094 31.1841 6.75094 27.5747 6.75094 23.9653C6.75094 20.3559 6.75094 16.7466 6.75 13.1372C6.75 13.0978 6.75937 13.0884 6.79875 13.0884C14.0175 13.0894 21.2362 13.0894 28.455 13.0884C28.4897 13.0884 28.5009 13.0969 28.5028 13.125H40.2188C40.8375 13.125 41.3438 13.6313 41.3438 14.25V33.75C41.3438 34.3688 40.8375 34.875 40.2188 34.875Z" fill="#FDFDFE"/>
<path d="M36.3261 33.0825C35.7571 33.0938 35.2049 33.0047 34.6743 32.7956C34.198 32.6081 33.763 32.3559 33.3955 31.9959C33.1255 31.7316 32.9174 31.4194 32.7271 31.095C32.6999 31.0481 32.7083 31.0219 32.7552 30.9947C33.0852 30.8053 33.4133 30.6131 33.7424 30.4219C33.9243 30.3159 34.108 30.2119 34.288 30.1041C34.3311 30.0778 34.3499 30.0862 34.3743 30.1256C34.5308 30.3769 34.7249 30.5944 34.9405 30.7969C35.2405 31.0791 35.5986 31.2253 35.999 31.2816C36.3805 31.335 36.7546 31.305 37.1118 31.1466C37.2477 31.0866 37.3677 31.0031 37.4718 30.8972C37.6452 30.7191 37.6986 30.5016 37.6977 30.2606C37.6968 29.9175 37.528 29.6747 37.2571 29.4891C37.0077 29.3184 36.734 29.1928 36.4611 29.0672C36.0383 28.8731 35.6061 28.6997 35.1918 28.4878C34.7821 28.2778 34.3949 28.0359 34.0705 27.7031C33.7433 27.3675 33.5193 26.9728 33.3927 26.5238C33.3318 26.3081 33.3261 26.0831 33.3196 25.86C33.313 25.6322 33.3046 25.4016 33.3505 25.1775C33.5146 24.3694 33.9646 23.7703 34.693 23.3859C35.1121 23.1647 35.5602 23.0456 36.0374 23.0409C36.4152 23.0372 36.793 23.0381 37.1633 23.1141C37.7718 23.2378 38.278 23.5416 38.6849 24.0103C38.8274 24.1753 38.9633 24.345 39.0786 24.5306C39.1274 24.6094 39.1274 24.6112 39.0533 24.6647C38.5911 24.9984 38.1121 25.3069 37.6311 25.6125C37.603 25.6303 37.5833 25.6266 37.5608 25.605C37.5121 25.5581 37.4718 25.5047 37.4333 25.4494C37.3452 25.3209 37.2496 25.1981 37.1333 25.0931C36.9046 24.8878 36.6299 24.8062 36.329 24.7969C36.1433 24.7912 35.9615 24.8119 35.7899 24.8888C35.4796 25.0294 35.3286 25.2769 35.308 25.6106C35.2846 25.995 35.4561 26.2772 35.7702 26.4834C36.0224 26.6494 36.298 26.7703 36.5736 26.8912C37.0958 27.1191 37.6171 27.3478 38.1121 27.6328C38.4074 27.8025 38.6886 27.9928 38.9343 28.2309C39.2905 28.575 39.5211 28.9894 39.6346 29.4703C39.7649 30.0244 39.7686 30.5784 39.6121 31.1288C39.4527 31.6894 39.1208 32.1262 38.6474 32.46C38.2199 32.7609 37.739 32.9306 37.2299 33.0291C36.9308 33.0872 36.628 33.0863 36.3261 33.0863V33.0825Z" fill="#FDFEFE"/>
<path d="M29.3212 28.9519C29.3212 30.2709 29.3212 31.5891 29.3221 32.9081C29.3221 32.9616 29.309 32.9747 29.2556 32.9738C28.6312 32.9719 28.0059 32.9719 27.3815 32.9738C27.3299 32.9738 27.3177 32.9616 27.3177 32.91C27.3187 30.2794 27.3187 27.6497 27.3187 25.0191C27.3187 25.005 27.3177 24.9909 27.3187 24.9769C27.3224 24.9413 27.3112 24.9225 27.2718 24.9281C27.2577 24.93 27.2437 24.9281 27.2296 24.9281C26.3362 24.9281 25.4418 24.9281 24.5484 24.9291C24.5006 24.9291 24.4856 24.9178 24.4865 24.8681C24.4921 24.5606 24.4931 24.2522 24.4968 23.9447C24.4996 23.6972 24.5043 23.4497 24.5043 23.2013C24.5043 23.1563 24.5202 23.1497 24.5596 23.1497C24.8784 23.1497 25.1971 23.1478 25.5149 23.1469C26.0212 23.1459 26.5274 23.1478 27.0337 23.1441C28.2393 23.1356 29.444 23.1384 30.6496 23.1394C31.1024 23.1394 31.5552 23.1459 32.009 23.1506C32.1374 23.1516 32.1374 23.1525 32.1421 23.2838C32.1609 23.8163 32.1487 24.3488 32.1534 24.8822C32.1534 24.9338 32.1262 24.9291 32.0934 24.9291C31.1943 24.9291 30.2952 24.9291 29.3962 24.9291C29.3127 24.9291 29.3212 24.9206 29.3212 25.0022C29.3212 26.3194 29.3212 27.6356 29.3212 28.9528V28.9519Z" fill="#FDFEFE"/>
</svg>
