<svg width="48" height="48" viewBox="0 0 48 48" fill="none" xmlns="http://www.w3.org/2000/svg">
<path d="M20.9943 29.2781C21.9862 29.3484 22.9799 29.3812 24.0083 29.3869C24.9402 29.3794 25.9058 29.3503 26.8696 29.2819C26.9633 29.2753 27.0187 29.2453 27.0702 29.1675C28.1605 27.5494 29.1355 25.8656 29.9887 24.1106C30.0271 24.0309 30.029 23.9728 29.9896 23.8931C29.1355 22.1391 28.1605 20.4553 27.0721 18.8362C27.0187 18.7575 26.9605 18.7275 26.8696 18.7209C26.3043 18.6825 25.738 18.6534 25.1718 18.6384C23.7871 18.6009 22.4033 18.6225 21.0215 18.7256C20.938 18.7322 20.8883 18.7622 20.8443 18.8306C20.7102 19.0416 20.5677 19.2478 20.4308 19.4578C19.5055 20.8828 18.6684 22.3575 17.9268 23.8866C17.8968 23.9494 17.8687 24.0019 17.9071 24.0787C18.7724 25.8534 19.7559 27.5587 20.8621 29.1937C20.8949 29.2425 20.9287 29.2716 20.9933 29.2762L20.9943 29.2781ZM23.968 21.0216C25.6171 21.0272 26.9455 22.3669 26.939 24.0169C26.9334 25.6537 25.5899 26.9897 23.9521 26.9859C22.3012 26.9822 20.9652 25.6341 20.9737 23.9794C20.9821 22.3406 22.3237 21.015 23.968 21.0206V21.0216Z" fill="#FDFDFE"/>
<path d="M28.9219 29.0775C29.8706 28.9584 30.8128 28.7972 31.7475 28.5966C31.8394 28.5769 31.8637 28.5525 31.8309 28.4513C31.6172 27.7894 31.3856 27.1341 31.1278 26.4881C31.0275 26.2359 30.9253 25.9838 30.8137 25.7081C30.2081 26.8734 29.5669 27.9816 28.875 29.07C28.9022 29.0747 28.9125 29.0775 28.9209 29.0766L28.9219 29.0775Z" fill="#FDFDFE"/>
<path d="M31.7288 19.4025C31.035 19.2544 30.3366 19.1306 29.6353 19.0228C29.3906 18.9853 29.1441 18.9562 28.8666 18.9197C29.5706 20.0269 30.21 21.1322 30.8091 22.2844C30.8288 22.2441 30.84 22.2244 30.8485 22.2037C31.2131 21.3422 31.5366 20.4647 31.8244 19.5741C31.86 19.4644 31.8506 19.4278 31.7288 19.4025Z" fill="#FDFDFE"/>
<path d="M19.0377 18.9319C18.9946 18.9319 18.9759 18.93 18.9571 18.9319C18.0121 19.05 17.0756 19.2122 16.1446 19.4119C16.0509 19.4316 16.0584 19.4737 16.0818 19.5469C16.3237 20.3119 16.6012 21.0637 16.9002 21.8081C16.9621 21.9619 17.0277 22.1138 17.1009 22.2909C17.7037 21.1275 18.3459 20.0241 19.0368 18.9319H19.0377Z" fill="#FDFDFE"/>
<path d="M27.7443 17.2594C27.7856 17.3175 27.8296 17.3428 27.9018 17.3494C28.6781 17.4244 29.4515 17.5191 30.2221 17.6428C30.8681 17.7469 31.5112 17.8641 32.1487 18.0094C32.2124 18.0244 32.2677 18.0403 32.2921 17.9419C32.5921 16.6978 32.8106 15.4434 32.8227 14.16C32.8227 14.0953 32.8246 14.0297 32.8227 13.965C32.804 13.2234 32.7299 12.4913 32.4365 11.8003C32.0287 10.8403 31.2965 10.4259 30.2727 10.56C29.5809 10.6509 28.9499 10.9125 28.3434 11.2406C27.1115 11.9062 26.0484 12.795 25.0406 13.755C24.9684 13.8234 24.9993 13.8553 25.049 13.9088C26.0212 14.9672 26.9127 16.0894 27.7452 17.2603L27.7443 17.2594Z" fill="#FDFDFE"/>
<path d="M16.2037 28.605C16.8572 28.7409 17.5134 28.8628 18.1744 28.9641C18.4556 29.0072 18.7378 29.0419 19.0462 29.085C18.689 28.5187 18.3553 27.9741 18.0365 27.4209C17.7169 26.8669 17.4094 26.3062 17.1037 25.7194C17.0831 25.7634 17.0728 25.7831 17.0644 25.8037C16.7015 26.6616 16.3819 27.5353 16.0912 28.4203C16.0481 28.5516 16.0865 28.5816 16.2047 28.6059L16.2037 28.605Z" fill="#FDFDFE"/>
<path d="M22.0125 17.2078C23.3184 17.1544 24.5953 17.1553 25.8712 17.2059C25.8796 17.1591 25.8534 17.1422 25.8375 17.1216C25.2721 16.3781 24.6759 15.66 24.0506 14.9672C23.9756 14.8837 23.9381 14.8866 23.864 14.9681C23.3184 15.5709 22.799 16.1953 22.2965 16.8347C22.2056 16.95 22.1193 17.0681 22.0125 17.2078Z" fill="#FDFDFE"/>
<path d="M37.5 21.6094C36.2278 20.7609 34.8141 20.2387 33.3581 19.8103C33.2559 19.7803 33.2616 19.8478 33.2456 19.8984C32.8153 21.2709 32.2875 22.6069 31.6875 23.9137C31.6603 23.9719 31.6566 24.0206 31.6847 24.0825C32.2866 25.3941 32.8172 26.7328 33.2447 28.1119C33.2691 28.1897 33.2981 28.2112 33.3797 28.1869C34.5253 27.8503 35.6456 27.4481 36.6975 26.8772C37.4241 26.4834 38.1075 26.0306 38.6466 25.3912C38.9869 24.9881 39.2241 24.5391 39.2344 24.0056C39.2231 23.4844 39.0066 23.0559 38.6944 22.6678C38.3569 22.2469 37.9463 21.9066 37.4991 21.6094H37.5Z" fill="#FDFDFE"/>
<path d="M22.0125 30.7969C22.6218 31.6012 23.2425 32.3512 23.8987 33.0722C23.9446 33.1228 23.969 33.1237 24.0159 33.0722C24.6721 32.3512 25.2928 31.6013 25.9031 30.795C24.5943 30.8541 23.3156 30.8503 22.0125 30.7969Z" fill="#FDFDFE"/>
<path d="M32.1646 29.9916C31.3762 30.1659 30.5831 30.3122 29.7834 30.4275C29.1815 30.5137 28.5778 30.5888 27.9731 30.6478C27.8943 30.6553 27.8128 30.6469 27.7518 30.7322C26.9156 31.9116 26.0184 33.0422 25.0378 34.1062C24.9853 34.1625 24.9834 34.1953 25.0406 34.2506C25.9978 35.1628 27.0065 36.0094 28.1615 36.6647C28.8684 37.065 29.6034 37.3941 30.4265 37.4597C31.2234 37.5234 31.8525 37.2394 32.2687 36.5372C32.3709 36.3647 32.4525 36.1838 32.5181 35.9953C32.7628 35.2978 32.819 34.5731 32.8246 33.8672C32.8106 32.5575 32.5912 31.3022 32.2903 30.0591C32.2706 29.9794 32.2378 29.9766 32.1637 29.9925L32.1646 29.9916Z" fill="#FDFDFE"/>
<path d="M15.7772 18.0075C17.1731 17.6916 18.5878 17.4909 20.0109 17.3494C20.0822 17.3419 20.1272 17.3194 20.1694 17.2603C21.0019 16.0894 21.8925 14.9653 22.8675 13.9097C22.9378 13.8337 22.9228 13.7962 22.8553 13.7353C22.5928 13.5 22.3388 13.2534 22.0725 13.0219C21.2091 12.2691 20.2969 11.5847 19.2628 11.0803C18.6413 10.7775 17.9981 10.5478 17.295 10.5366C17.1356 10.5328 16.9791 10.5497 16.8244 10.5825C16.1831 10.7203 15.7809 11.1394 15.5175 11.7112C15.21 12.3769 15.1172 13.0894 15.0966 13.8122C15.0563 15.2156 15.2972 16.5853 15.6225 17.9437C15.6497 18.0562 15.7144 18.0216 15.7781 18.0075H15.7772Z" fill="#FDFDFE"/>
<path d="M24 0C10.7456 0 0 10.7456 0 24C0 37.2544 10.7456 48 24 48C37.2544 48 48 37.2544 48 24C48 10.7456 37.2544 0 24 0ZM40.6875 24.5091C40.6369 24.4781 40.6406 24.5241 40.6369 24.5484C40.4981 25.3247 40.1053 25.9659 39.5794 26.535C38.9803 27.1838 38.2622 27.6769 37.4953 28.1016C36.3253 28.7494 35.0784 29.2069 33.7978 29.5781C33.7125 29.6025 33.6759 29.6222 33.7022 29.7253C33.93 30.6356 34.1063 31.5553 34.2019 32.4891C34.3106 33.5616 34.3266 34.6313 34.1081 35.6934C33.9684 36.3769 33.7313 37.0219 33.3141 37.59C32.8425 38.2322 32.22 38.6494 31.4428 38.8359C31.4072 38.8444 31.3406 38.8172 31.3462 38.8969H29.8688C29.8903 38.8303 29.8322 38.85 29.8078 38.8453C28.8788 38.6728 28.0359 38.2847 27.2306 37.8066C26.0662 37.1156 25.0331 36.2559 24.0609 35.3203C23.9794 35.2416 23.9372 35.2406 23.8547 35.3203C23.0822 36.0666 22.2675 36.7622 21.3759 37.365C20.3672 38.0466 19.3088 38.6213 18.0928 38.8472C18.0703 38.8509 18.0234 38.8453 18.0459 38.8969H16.5684C16.5422 38.8509 16.5422 38.85 16.5 38.8406C16.2272 38.7797 15.9656 38.6878 15.7181 38.5575C14.8894 38.1216 14.3756 37.4212 14.0559 36.5625C13.6556 35.4881 13.5984 34.3697 13.6547 33.2409C13.7128 32.0691 13.9144 30.9178 14.2022 29.7816C14.2397 29.6316 14.1937 29.5959 14.0653 29.5594C13.1625 29.3062 12.2822 28.9912 11.4272 28.605C10.5534 28.2103 9.71813 27.7491 8.97656 27.1341C8.14312 26.4441 7.47844 25.6397 7.275 24.5353C7.27125 24.5166 7.27031 24.4688 7.22719 24.5091V23.505C7.27875 23.5294 7.27313 23.4825 7.27688 23.46C7.42688 22.6181 7.86844 21.9375 8.45719 21.3422C9.28594 20.5041 10.2872 19.9256 11.3456 19.4363C12.2391 19.0238 13.1653 18.6984 14.1112 18.4275C14.1844 18.4069 14.2444 18.3984 14.2153 18.285C13.9838 17.3709 13.8075 16.4466 13.7128 15.5081C13.6041 14.4366 13.5891 13.3669 13.8075 12.3047C13.95 11.6119 14.1919 10.9594 14.6194 10.3866C15.0778 9.77344 15.6788 9.37031 16.4212 9.17906C16.455 9.17063 16.5234 9.19687 16.5122 9.11625H18.1012C18.0788 9.16781 18.1256 9.16125 18.1481 9.16594C19.02 9.33187 19.8159 9.69094 20.5763 10.1334C21.7838 10.8356 22.8516 11.7188 23.8538 12.6844C23.9363 12.7641 23.9766 12.765 24.0591 12.6844C24.8194 11.9456 25.6247 11.2594 26.5022 10.6622C27.5044 9.97969 28.5581 9.40406 29.7647 9.16594C29.7872 9.16125 29.8341 9.16781 29.8116 9.11625H31.4006C31.4212 9.16219 31.4203 9.16313 31.4644 9.17438C31.7128 9.23531 31.9528 9.31969 32.1806 9.43781C33.0169 9.87187 33.5344 10.5741 33.8569 11.4375C34.2563 12.5072 34.3144 13.62 34.26 14.745C34.2028 15.9356 33.9919 17.1038 33.7059 18.2587C33.6797 18.3656 33.7013 18.4013 33.8034 18.4294C34.5713 18.645 35.325 18.9028 36.06 19.2131C37.1719 19.6819 38.2341 20.2378 39.1434 21.0459C39.8812 21.7003 40.4541 22.4606 40.6369 23.4609C40.6406 23.4844 40.635 23.5303 40.6866 23.505V24.5091H40.6875Z" fill="#FDFDFE"/>
<path d="M20.1769 30.7528C20.1197 30.6722 20.0512 30.6562 19.9669 30.6469C19.4409 30.5887 18.914 30.5381 18.39 30.4659C17.5031 30.3431 16.6209 30.1894 15.7472 29.9897C15.6703 29.9719 15.6412 29.985 15.6225 30.0609C15.3225 31.3003 15.104 32.5509 15.09 33.7425C15.089 34.4409 15.1322 35.0466 15.2869 35.6391C15.4153 36.1341 15.6056 36.6009 15.9787 36.9675C16.4709 37.4503 17.0775 37.5309 17.7253 37.4334C18.4134 37.3303 19.0425 37.0575 19.6462 36.7247C20.8265 36.0731 21.8522 35.2191 22.8272 34.2975C22.9209 34.2094 22.9331 34.1625 22.8394 34.0612C21.8756 33.0206 20.9981 31.9087 20.1769 30.7528Z" fill="#FDFDFE"/>
<path d="M16.231 23.9241C15.6291 22.6125 15.0985 21.2737 14.6701 19.8947C14.6438 19.8103 14.6138 19.7897 14.5257 19.8197C14.2848 19.9012 14.0382 19.9678 13.7954 20.0466C12.6469 20.4234 11.5332 20.8791 10.5151 21.5428C9.96757 21.9 9.46319 22.3087 9.08351 22.8506C8.84444 23.1919 8.68976 23.5641 8.67944 23.9878C8.68319 24.4678 8.87257 24.8794 9.15663 25.2544C9.58226 25.815 10.1326 26.2312 10.726 26.595C11.9138 27.3225 13.2094 27.795 14.5379 28.1887C14.626 28.215 14.6476 28.1803 14.6691 28.1091C15.0976 26.7309 15.6282 25.3912 16.2301 24.0797C16.2554 24.0244 16.2563 23.9803 16.2301 23.9241H16.231Z" fill="#FDFDFE"/>
</svg>
