<svg width="248" height="260" viewBox="0 0 248 260" fill="none" xmlns="http://www.w3.org/2000/svg">
<path d="M118.602 141.317C120.209 140.605 121.574 139.443 122.532 137.971C123.49 136.499 124 134.78 124 133.024C124 131.833 123.765 130.653 123.309 129.552C122.853 128.452 122.185 127.452 121.342 126.609C120.499 125.767 119.499 125.099 118.398 124.643C117.297 124.187 116.117 123.952 114.925 123.952C112.939 123.952 110.972 124.343 109.137 125.103C107.302 125.863 105.634 126.977 104.23 128.381C102.826 129.785 101.711 131.451 100.951 133.286C100.191 135.12 99.8 137.086 99.8 139.071C99.8 141.851 100.348 144.604 101.412 147.172C102.476 149.74 104.036 152.073 106.002 154.039C107.968 156.004 110.303 157.563 112.872 158.627C115.441 159.691 118.194 160.238 120.975 160.238C124.55 160.238 128.09 159.534 131.394 158.167C134.697 156.799 137.698 154.794 140.226 152.267C142.754 149.74 144.759 146.74 146.128 143.438C147.496 140.136 148.2 136.598 148.2 133.024C148.2 128.656 147.339 124.331 145.667 120.295C143.995 116.26 141.544 112.593 138.454 109.504C135.364 106.415 131.696 103.965 127.659 102.294C123.622 100.622 119.295 99.7619 114.925 99.7619C109.761 99.7619 104.647 100.779 99.876 102.754C95.1048 104.73 90.7697 107.625 87.118 111.275C83.4664 114.926 80.5697 119.259 78.5934 124.028C76.6172 128.798 75.6 133.909 75.6 139.071C75.6 145.028 76.7737 150.926 79.054 156.429C81.3343 161.932 84.6766 166.932 88.89 171.144C93.1035 175.356 98.1056 178.697 103.611 180.976C109.116 183.255 115.016 184.429 120.975 184.429C127.728 184.429 134.415 183.099 140.654 180.516C146.894 177.932 152.563 174.146 157.338 169.372C162.113 164.599 165.901 158.932 168.486 152.696C171.07 146.459 172.4 139.774 172.4 133.024C172.4 125.479 170.913 118.008 168.025 111.038C165.137 104.067 160.903 97.7338 155.566 92.3988C150.229 87.0639 143.893 82.832 136.92 79.9447C129.947 77.0575 122.473 75.5714 114.925 75.5714C106.583 75.5714 98.3222 77.2139 90.615 80.4051C82.9078 83.5962 75.9049 88.2736 70.006 94.1701C64.1072 100.067 59.428 107.067 56.2356 114.771C53.0431 122.475 51.4 130.732 51.4 139.071C51.4 148.205 53.1996 157.248 56.6961 165.686C60.1926 174.124 65.3174 181.791 71.7781 188.249C78.2387 194.707 85.9086 199.83 94.3498 203.325C102.791 206.82 111.838 208.619 120.975 208.619C130.906 208.619 140.74 206.664 149.915 202.865C159.091 199.066 167.428 193.497 174.45 186.478C181.472 179.458 187.043 171.124 190.843 161.953C194.644 152.781 196.6 142.951 196.6 133.024C196.6 122.302 194.487 111.686 190.383 101.78C186.278 91.8751 180.262 82.8748 172.678 75.2936C165.094 67.7123 156.09 61.6986 146.181 57.5956C136.271 53.4927 125.651 51.381 114.925 51.381C103.405 51.381 91.9974 53.6491 81.3541 58.056C70.7108 62.4629 61.0401 68.9221 52.8941 77.0649C44.748 85.2077 38.2863 94.8746 33.8777 105.514C29.4691 116.153 27.2 127.556 27.2 139.071C27.2 151.381 29.6256 163.571 34.3382 174.943C39.0508 186.316 45.9583 196.65 54.6661 205.354C63.3739 214.059 73.7116 220.963 85.0889 225.674C96.4662 230.385 108.66 232.81 120.975 232.81C134.084 232.81 147.065 230.228 159.176 225.214C171.288 220.199 182.292 212.849 191.562 203.583C200.832 194.317 208.185 183.317 213.201 171.21C218.218 159.104 220.8 146.128 220.8 133.024C220.8 119.126 218.061 105.363 212.741 92.5231C207.42 79.6829 199.621 68.0159 189.79 58.1883C179.959 48.3608 168.287 40.5652 155.442 35.2466C142.596 29.9279 128.829 27.1905 114.925 27.1905C100.227 27.1905 85.6725 30.0844 72.0932 35.7069C58.5138 41.3294 46.1753 49.5705 35.7821 59.9596C25.3889 70.3488 17.1445 82.6824 11.5198 96.2564C5.89503 109.83 3 124.379 3 139.071C3 154.558 6.05151 169.893 11.9803 184.201C17.9091 198.508 26.5991 211.509 37.5541 222.46C48.5091 233.41 61.5145 242.097 75.8279 248.023C90.1413 253.95 105.482 257 120.975 257C137.262 257 153.39 253.793 168.437 247.563C183.485 241.332 197.157 232.2 208.674 220.688C220.191 209.176 229.326 195.509 235.559 180.467C241.792 165.426 245 149.305 245 133.024C245 115.949 241.636 99.0411 235.099 83.2658C228.562 67.4906 218.981 53.1569 206.902 41.0831C194.823 29.0093 180.484 19.4318 164.703 12.8975C148.921 6.36316 132.007 3 114.925 3" stroke="#FDFDFE" stroke-width="5" stroke-linecap="round" stroke-linejoin="round"/>
</svg>
