<svg width="252" height="264" viewBox="0 0 252 264" fill="none" xmlns="http://www.w3.org/2000/svg">
<path d="M120.602 143.317C122.209 142.605 123.574 141.443 124.532 139.971C125.49 138.499 126 136.78 126 135.024C126 133.833 125.765 132.653 125.309 131.552C124.853 130.452 124.185 129.452 123.342 128.609C122.499 127.767 121.499 127.099 120.398 126.643C119.297 126.187 118.117 125.952 116.925 125.952C114.939 125.952 112.972 126.343 111.137 127.103C109.302 127.863 107.634 128.977 106.23 130.381C104.826 131.785 103.711 133.451 102.951 135.286C102.191 137.12 101.8 139.086 101.8 141.071C101.8 143.851 102.348 146.604 103.412 149.172C104.476 151.74 106.036 154.073 108.002 156.039C109.968 158.004 112.303 159.563 114.872 160.627C117.441 161.691 120.194 162.238 122.975 162.238C126.55 162.238 130.09 161.534 133.394 160.167C136.697 158.799 139.698 156.794 142.226 154.267C144.754 151.74 146.759 148.74 148.128 145.438C149.496 142.136 150.2 138.598 150.2 135.024C150.2 130.656 149.339 126.331 147.667 122.295C145.995 118.26 143.544 114.593 140.454 111.504C137.364 108.415 133.696 105.965 129.659 104.294C125.622 102.622 121.295 101.762 116.925 101.762C111.761 101.762 106.647 102.779 101.876 104.754C97.1048 106.73 92.7697 109.625 89.118 113.275C85.4664 116.926 82.5697 121.259 80.5934 126.028C78.6172 130.798 77.6 135.909 77.6 141.071C77.6 147.028 78.7737 152.926 81.054 158.429C83.3343 163.932 86.6766 168.932 90.89 173.144C95.1035 177.356 100.106 180.697 105.611 182.976C111.116 185.255 117.016 186.429 122.975 186.429C129.728 186.429 136.415 185.099 142.654 182.516C148.894 179.932 154.563 176.146 159.338 171.372C164.113 166.599 167.901 160.932 170.486 154.696C173.07 148.459 174.4 141.774 174.4 135.024C174.4 127.479 172.913 120.008 170.025 113.038C167.137 106.067 162.903 99.7338 157.566 94.3988C152.229 89.0639 145.893 84.832 138.92 81.9447C131.947 79.0575 124.473 77.5714 116.925 77.5714C108.583 77.5714 100.322 79.2139 92.615 82.4051C84.9078 85.5962 77.9049 90.2736 72.006 96.1701C66.1072 102.067 61.428 109.067 58.2356 116.771C55.0431 124.475 53.4 132.732 53.4 141.071C53.4 150.205 55.1996 159.248 58.6961 167.686C62.1926 176.124 67.3174 183.791 73.7781 190.249C80.2387 196.707 87.9086 201.83 96.3498 205.325C104.791 208.82 113.838 210.619 122.975 210.619C132.906 210.619 142.74 208.664 151.915 204.865C161.091 201.066 169.428 195.497 176.45 188.478C183.472 181.458 189.043 173.124 192.843 163.953C196.644 154.781 198.6 144.951 198.6 135.024C198.6 124.302 196.487 113.686 192.383 103.78C188.278 93.8751 182.262 84.8748 174.678 77.2936C167.094 69.7123 158.09 63.6986 148.181 59.5956C138.271 55.4927 127.651 53.381 116.925 53.381C105.405 53.381 93.9974 55.6491 83.3541 60.056C72.7108 64.4629 63.0401 70.9221 54.8941 79.0649C46.748 87.2077 40.2863 96.8746 35.8777 107.514C31.4691 118.153 29.2 129.556 29.2 141.071C29.2 153.381 31.6256 165.571 36.3382 176.943C41.0508 188.316 47.9583 198.65 56.6661 207.354C65.3739 216.059 75.7116 222.963 87.0889 227.674C98.4662 232.385 110.66 234.81 122.975 234.81C136.084 234.81 149.065 232.228 161.176 227.214C173.288 222.199 184.292 214.849 193.562 205.583C202.832 196.317 210.185 185.317 215.201 173.21C220.218 161.104 222.8 148.128 222.8 135.024C222.8 121.126 220.061 107.363 214.741 94.5231C209.42 81.6829 201.621 70.0159 191.79 60.1883C181.959 50.3608 170.287 42.5652 157.442 37.2466C144.596 31.9279 130.829 29.1905 116.925 29.1905C102.227 29.1905 87.6725 32.0844 74.0932 37.7069C60.5138 43.3294 48.1753 51.5705 37.7821 61.9596C27.3889 72.3488 19.1445 84.6824 13.5198 98.2564C7.89503 111.83 5 126.379 5 141.071C5 156.558 8.05151 171.893 13.9803 186.201C19.9091 200.508 28.5991 213.509 39.5541 224.46C50.5091 235.41 63.5145 244.097 77.8279 250.023C92.1413 255.95 107.482 259 122.975 259C139.262 259 155.39 255.793 170.437 249.563C185.485 243.332 199.157 234.2 210.674 222.688C222.191 211.176 231.326 197.509 237.559 182.467C243.792 167.426 247 151.305 247 135.024C247 117.949 243.636 101.041 237.099 85.2658C230.562 69.4906 220.981 55.1569 208.902 43.0831C196.823 31.0093 182.484 21.4318 166.703 14.8975C150.921 8.36316 134.007 5 116.925 5" stroke="#FDFDFE" stroke-width="10" stroke-linecap="round" stroke-linejoin="round"/>
</svg>
