<?xml version="1.0" encoding="UTF-8"?>
<svg id="Calque_2" data-name="Calque 2" xmlns="http://www.w3.org/2000/svg" viewBox="0 0 554.07 675">
  <defs>
    <style>
      .cls-1 {
        fill: #fff;
      }
    </style>
  </defs>
  <g id="Calque_1-2" data-name="Calque 1">
    <path class="cls-1" d="m277.02,608c-13.81,0-25-11.19-25-25v-254.98c-15.54-.02-36.51-.03-57.64-.04-.45,1.12-.84,2.11-1.15,2.98-.99,2.74-10.17,27.49-25.97,53.95-20.98,35.14-44.06,57.13-68.61,65.35-20.96,7.02-42.48,3.95-62.24-8.88-30.45-19.76-43.09-53.37-33-87.72,11-37.44,51.21-75.34,116.22-75.61,10.06-.04,25.33-.06,42.49-.07,8.55-18.1,19.54-40.59,31.39-64.84,23.3-47.69,55.21-113.01,59.42-128.12,3.35-12.04,15.08-19.75,27.47-18.06,12.38,1.69,21.62,12.27,21.62,24.77v208.28c.12,1.01.18,2.04.18,3.08,0,1.02-.06,2.02-.18,3.01v276.91c0,13.81-11.19,25-25,25Zm-136.54-280.01c-8.09.01-15.15.03-20.64.05-18.54.08-35.09,4.7-47.85,13.37-10.36,7.04-17.68,16.39-20.6,26.33-2.67,9.09-2.72,21.97,12.25,31.68,8.79,5.71,14.61,4.93,19.14,3.41,22.47-7.52,45.48-47.36,57.71-74.85Zm77.07-50.01c12.76,0,24.68.02,34.47.03v-70.78c-4.3,8.84-8.83,18.12-13.58,27.85-7.13,14.59-14.34,29.35-20.88,42.9Z"/>
    <path class="cls-1" d="m277.07,608.4c-1.13,0-2.26-.08-3.4-.23-12.38-1.69-21.62-12.27-21.62-24.77v-208.28c-.12-1.01-.19-2.04-.18-3.08,0-1.02.06-2.02.18-3.01V92.12c0-13.81,11.19-25,25-25s25,11.19,25,25v254.98c15.54.02,36.51.03,57.64.04.45-1.12.84-2.11,1.15-2.98,1-2.73,10.17-27.49,25.97-53.95,20.98-35.14,44.06-57.13,68.61-65.35,20.96-7.02,42.48-3.95,62.24,8.88,30.45,19.76,43.09,53.37,33,87.72-11,37.44-51.21,75.35-116.22,75.61-10.05.04-25.34.06-42.49.07-8.55,18.09-19.54,40.59-31.38,64.83-23.3,47.69-55.22,113.01-59.42,128.13-3.04,10.93-12.99,18.29-24.06,18.29Zm24.98-211.29v70.77c4.3-8.84,8.83-18.13,13.58-27.85,7.13-14.59,14.34-29.35,20.88-42.89-12.76,0-24.68-.02-34.46-.03Zm175.44-125.92c-2.34,0-4.37.49-6.19,1.1-22.47,7.52-45.48,47.36-57.71,74.85,8.09-.01,15.15-.03,20.64-.05,18.54-.08,35.09-4.7,47.86-13.37,10.36-7.04,17.68-16.39,20.6-26.33,2.67-9.09,2.72-21.97-12.25-31.68-5.26-3.42-9.46-4.51-12.95-4.51Z"/>
    <circle class="cls-1" cx="277.02" cy="25" r="25"/>
    <circle class="cls-1" cx="277.02" cy="650" r="25"/>
  </g>
</svg>