<svg width="48" height="48" viewBox="0 0 48 48" fill="none" xmlns="http://www.w3.org/2000/svg">
<path d="M24 48C37.2548 48 48 37.2548 48 24C48 10.7452 37.2548 0 24 0C10.7452 0 0 10.7452 0 24C0 37.2548 10.7452 48 24 48Z" fill="#FDFDFE"/>
<path d="M23.2678 38.3484C22.8112 38.0212 22.3818 37.6603 21.9675 37.2834C20.219 35.6944 18.7472 33.8841 17.609 31.8084C17.0353 30.7622 16.5712 29.6672 16.2187 28.5272C16.0772 28.0678 16.0087 27.5916 15.9328 27.1181C15.7725 26.1084 15.6543 25.0941 15.5681 24.0759C15.5315 23.6419 15.5109 23.205 15.4893 22.77C15.4659 22.2825 15.5193 21.7987 15.5662 21.315C15.6572 20.3719 15.8006 19.4362 16.0012 18.51C16.7943 14.8556 18.39 11.6025 20.8603 8.78624C21.3956 8.17593 21.9787 7.61343 22.5956 7.08655C22.8047 6.90843 23.009 6.72562 23.1956 6.52405C23.5406 6.14999 23.7525 5.71687 23.7778 5.20124C23.7797 5.1703 23.7815 5.13937 23.79 5.10937C23.7965 5.08499 23.8172 5.06624 23.8425 5.06343C23.8715 5.06062 23.8865 5.08124 23.894 5.10655C23.9109 5.15999 23.9278 5.21249 23.9447 5.26593C23.8865 5.35593 23.8978 5.45812 23.8987 5.55655C23.9034 6.28499 23.9081 7.01437 23.9278 7.7428C23.9681 9.27468 23.9203 10.8084 23.9643 12.3412C24.0122 13.9856 23.955 15.6309 24.0037 17.2762C24.0487 18.7837 24.0009 20.2922 24.0375 21.8006C24.0806 23.5819 24.0356 25.365 24.0806 27.1472C24.1153 28.5178 24.0609 29.8884 24.1143 31.26C24.1453 32.0503 24.1181 32.8434 24.1172 33.6347C24.0075 33.7266 24.0225 33.8597 24.0122 33.9797C23.9765 34.395 23.9568 34.8112 23.9184 35.2266C23.8472 36.0141 23.6981 36.7903 23.5593 37.5684C23.5097 37.8459 23.4375 38.115 23.2678 38.3484Z" fill="#6CAC48"/>
<path d="M24.1172 33.6347C24.1181 32.8434 24.1453 32.0503 24.1144 31.26C24.061 29.8884 24.1153 28.5178 24.0806 27.1472C24.0356 25.365 24.0806 23.5819 24.0375 21.8006C24.001 20.2922 24.0488 18.7838 24.0038 17.2763C23.955 15.6309 24.0122 13.9847 23.9644 12.3413C23.9203 10.8075 23.9681 9.27469 23.9278 7.74281C23.9091 7.01344 23.9035 6.285 23.8988 5.55656C23.8988 5.45813 23.8866 5.35594 23.9447 5.26594C23.9953 5.30719 24.015 5.36813 24.0441 5.4225C24.271 5.84531 24.5035 6.26531 24.7191 6.69469C24.9685 7.19063 25.2985 7.62469 25.6875 8.01656C26.2275 8.56125 26.7488 9.12281 27.2503 9.70406C28.5703 11.2359 29.6419 12.9244 30.4763 14.7647C31.1466 16.2441 31.6997 17.7656 32.071 19.3481C32.3072 20.3513 32.4506 21.3684 32.5097 22.3978C32.5603 23.2772 32.5575 24.1556 32.4938 25.0331C32.2556 28.2966 31.2263 31.2825 29.3475 33.9684C28.6341 34.9875 27.8372 35.9363 26.9353 36.795C26.4966 37.2122 26.0288 37.5956 25.5394 37.9519C25.5038 37.9772 25.47 38.0053 25.425 38.0128C25.1569 37.8938 24.9741 37.6856 24.8306 37.4381C24.69 37.1944 24.5794 36.9366 24.5025 36.6656C24.2222 35.6756 24.1116 34.6631 24.1163 33.6366L24.1172 33.6347Z" fill="#599636"/>
<path d="M24.1172 33.6347C24.1125 34.6613 24.2231 35.6738 24.5034 36.6638C24.5803 36.9347 24.6909 37.1925 24.8316 37.4363C24.9741 37.6838 25.1578 37.8919 25.4259 38.0109C25.4044 38.0484 25.3847 38.0878 25.3603 38.1234C25.0706 38.5509 24.9206 39.0253 24.87 39.5372C24.8438 39.7988 24.8269 40.0584 24.8297 40.32C24.8334 40.6875 24.8316 41.0559 24.8297 41.4234C24.8278 41.8594 24.8241 42.2963 24.8775 42.7303C24.8822 42.7678 24.8869 42.8053 24.885 42.8419C24.8784 42.9975 24.8063 43.0434 24.6713 42.9731C24.4763 42.8719 24.2588 42.8344 24.0572 42.7528C23.8613 42.6731 23.8313 42.6525 23.8341 42.4397C23.8416 41.865 23.8078 41.2941 23.7506 40.7231C23.6784 40.0088 23.5603 39.3038 23.34 38.6184C23.3119 38.5294 23.2922 38.4384 23.2678 38.3484C23.4375 38.1159 23.5097 37.8459 23.5594 37.5684C23.6991 36.7913 23.8472 36.0141 23.9184 35.2266C23.9559 34.8113 23.9766 34.395 24.0122 33.9797C24.0225 33.8597 24.0084 33.7266 24.1172 33.6347Z" fill="#C0BDBD"/>
</svg>
