<svg width="48" height="48" viewBox="0 0 48 48" fill="none" xmlns="http://www.w3.org/2000/svg">
<path d="M24 0C10.7456 0 0 10.7456 0 24C0 37.2544 10.7456 48 24 48C37.2544 48 48 37.2544 48 24C48 10.7456 37.2544 0 24 0ZM38.9119 25.2966C38.9147 27.4781 38.9175 29.6588 38.9166 31.8403C38.9166 31.9247 38.8847 32.0091 38.8669 32.0934C38.8669 32.0934 38.8669 32.0953 38.8669 32.0962C38.82 32.52 38.5997 32.8509 38.25 33.0628C37.0575 33.7847 35.8537 34.4878 34.6275 35.1506C34.3556 35.3794 34.0163 35.49 33.7172 35.6709C33.4369 35.8875 33.1247 36.0478 32.8088 36.2034C32.4731 36.4303 32.1253 36.6366 31.7578 36.8072C31.3631 37.1044 30.9084 37.2956 30.4856 37.5431C30.1687 37.8094 29.7609 37.92 29.4281 38.16C29.1356 38.3278 28.8431 38.4956 28.5497 38.6634C28.1822 38.9297 27.7706 39.1172 27.3759 39.3366C26.9775 39.63 26.5275 39.8334 26.0991 40.0763C25.7775 40.3031 25.4353 40.4953 25.0763 40.6556C24.8822 40.8666 24.5944 40.9097 24.3656 41.0588H23.5678C18.9937 38.4338 14.4197 35.8078 9.84656 33.1819C9.63469 33.06 9.43219 32.925 9.33844 32.6813C9.11531 32.4309 9.02063 32.1244 9.01594 31.8019C9.00656 30.9862 9.01781 30.1706 9.02063 29.355C9.02063 28.1128 9.02063 26.8706 9.02063 25.6284C9.02063 25.0097 9.02063 24.3909 9.02063 23.7722C9.02063 23.1956 9.02063 22.62 9.02063 22.0434C9.02063 21.7978 9.02063 21.5512 9.02063 21.3056C9.01781 19.6181 9 17.9306 9.01969 16.2431C9.02625 15.6525 9.33937 15.2016 9.86344 14.9109C10.3069 14.5659 10.8159 14.3306 11.2969 14.0484C11.9025 13.6931 12.5166 13.3528 13.1278 13.0059C13.6603 12.6984 14.1919 12.3909 14.7244 12.0834C15.0984 11.8697 15.4716 11.6559 15.8456 11.4422C16.2122 11.2041 16.5853 10.9781 16.9809 10.7916C17.3813 10.5581 17.7816 10.3237 18.1828 10.0903C18.5559 9.87656 18.9291 9.66281 19.3022 9.44906C19.6716 9.21469 20.0419 8.98312 20.4403 8.79844C20.7572 8.57625 21.0947 8.38875 21.4416 8.21625C21.8184 7.99781 22.1953 7.77844 22.5722 7.56C22.9697 7.32469 23.34 7.02469 23.8369 7.02281C24.0159 7.02 24.1997 6.96469 24.3666 7.07719C24.8944 7.20281 25.3116 7.53844 25.7634 7.8075C26.6222 8.265 27.4659 8.75156 28.2919 9.26625C29.0841 9.68156 29.8556 10.1334 30.6159 10.6041C31.5178 11.0869 32.4019 11.6016 33.2747 12.1359C34.0884 12.5728 34.89 13.0303 35.6728 13.5206C36.5644 13.9913 37.4325 14.5022 38.2922 15.0272C38.385 15.0834 38.4778 15.1472 38.5116 15.2625C38.7703 15.5419 38.9156 15.8784 38.9166 16.2516C38.9212 19.2675 38.9147 22.2834 38.9119 25.2984V25.2966Z" fill="#FDFDFE"/>
</svg>
