<svg width="48" height="48" viewBox="0 0 48 48" fill="none" xmlns="http://www.w3.org/2000/svg">
<path d="M31.7751 12.65C31.597 12.5697 31.4141 12.497 31.2285 12.4372C29.4621 11.8688 27.6659 11.8749 25.8859 12.2951C22.7211 13.0416 19.8642 14.4537 17.3228 16.4825C16.0956 17.4622 15.0662 18.6167 14.3721 20.0505C13.7255 21.3858 13.839 22.6327 14.6957 23.8361C15.2763 24.652 16.0004 25.3197 16.7802 25.9343C17.7681 26.7141 18.8396 27.3777 19.8411 28.1378C20.1817 28.3961 20.1776 28.3968 19.8159 28.5926C18.4793 29.3147 17.1793 30.0897 16.1044 31.185C15.2464 32.0594 14.8004 33.0894 15.0397 34.3275C15.1675 34.9883 15.4701 35.5791 16.169 35.7953C16.8693 36.0122 17.5947 36.0082 18.3093 35.8355C21.364 35.0964 23.0093 31.9961 22.1262 29.0339C22.0786 28.8734 22.0092 28.7524 22.2547 28.7069C23.5301 28.4689 24.7818 28.5246 25.9866 29.0312C26.6399 29.3065 27.1655 29.7464 27.4748 30.4059C27.8665 31.2408 27.6652 32.0193 26.9214 32.5611C26.8215 32.6339 26.7174 32.7012 26.6202 32.7773C26.5713 32.8161 26.5346 32.8725 26.5672 32.9398C26.5971 33.001 26.6542 33.0255 26.7215 33.0201C26.8793 33.0078 27.02 32.9439 27.1567 32.8712C28.237 32.298 28.632 31.1368 28.1269 29.9245C27.6299 28.7313 26.6835 28.0406 25.4678 27.7163C24.193 27.3763 22.9135 27.4892 21.6441 27.7822C21.5082 27.8135 21.4048 27.8509 21.2858 27.7237C20.5842 26.9752 19.7506 26.3823 18.9484 25.7521C18.2345 25.1912 17.5254 24.6255 16.9808 23.8851C16.3437 23.0189 16.1867 22.0718 16.4919 21.0438C16.7605 20.1382 17.2963 19.4006 17.9564 18.7492C19.6119 17.1155 21.6122 16.0147 23.7164 15.0908C25.3053 14.3932 26.9649 13.9662 28.7136 13.9458C29.6172 13.9547 30.5065 14.041 31.323 14.4741C32.1055 14.8888 32.4305 15.5436 32.3163 16.4233C32.1831 17.45 31.6643 18.2835 30.9803 19.0191C29.5043 20.606 27.6482 21.479 25.5344 21.8291C24.0985 22.0671 22.7082 22.0535 21.5918 20.9018C21.5381 20.8467 21.4667 20.8174 21.3953 20.8576C21.3021 20.9099 21.2858 21.0003 21.3069 21.0989C21.3572 21.3355 21.464 21.5456 21.6183 21.7305C22.135 22.3472 22.7938 22.7674 23.5798 22.8761C26.5964 23.2922 29.3398 22.6361 31.6779 20.6244C32.7861 19.6705 33.5727 18.4814 33.9236 17.0386C34.4124 15.0282 33.6598 13.4957 31.7758 12.6493L31.7751 12.65ZM20.9119 29.5234C20.9731 29.8273 21.0037 30.1333 21.0152 30.3835C21.0084 32.1722 19.7167 33.8787 18.1087 34.2812C17.1113 34.5308 16.6504 34.0718 16.9101 33.0744C17.0882 32.3905 17.4642 31.8167 17.9523 31.3142C18.7356 30.5079 19.665 29.9048 20.6535 29.3833C20.8419 29.2841 20.8793 29.3602 20.9119 29.5234Z" fill="#FDFDFE"/>
<path d="M24 0C10.7449 0 0 10.7449 0 24C0 37.2551 10.7449 48 24 48C37.2551 48 48 37.2551 48 24C48 10.7449 37.2551 0 24 0ZM24 39.8414C15.2512 39.8414 8.15864 32.7488 8.15864 24C8.15864 15.2512 15.2512 8.15864 24 8.15864C32.7488 8.15864 39.8414 15.2512 39.8414 24C39.8414 32.7488 32.7488 39.8414 24 39.8414Z" fill="#FDFDFE"/>
</svg>
