<svg width="48" height="48" viewBox="0 0 48 48" fill="none" xmlns="http://www.w3.org/2000/svg">
<path d="M24 0C10.7456 0 0 10.7456 0 24C0 37.2544 10.7456 48 24 48C37.2544 48 48 37.2544 48 24C48 10.7456 37.2544 0 24 0ZM32.4947 25.0312C32.2566 28.2947 31.2272 31.2806 29.3484 33.9666C28.635 34.9856 27.8381 35.9344 26.9363 36.7931C26.4975 37.2103 26.0297 37.5938 25.5403 37.95C25.5047 37.9753 25.4709 38.0034 25.4259 38.0109C25.4044 38.0484 25.3847 38.0878 25.3603 38.1234C25.0706 38.5509 24.9206 39.0253 24.87 39.5372C24.8438 39.7988 24.8269 40.0584 24.8297 40.32C24.8334 40.6875 24.8316 41.0559 24.8297 41.4234C24.8278 41.8594 24.8241 42.2962 24.8775 42.7303C24.8822 42.7678 24.8869 42.8053 24.885 42.8419C24.8784 42.9975 24.8062 43.0434 24.6712 42.9731C24.4762 42.8719 24.2587 42.8344 24.0572 42.7528C23.8612 42.6731 23.8312 42.6525 23.8341 42.4397C23.8416 41.865 23.8078 41.2941 23.7506 40.7231C23.6784 40.0088 23.5603 39.3037 23.34 38.6184C23.3119 38.5294 23.2922 38.4384 23.2678 38.3484C22.8113 38.0212 22.3819 37.6603 21.9675 37.2834C20.2191 35.6944 18.7472 33.8841 17.6091 31.8084C17.0353 30.7622 16.5713 29.6672 16.2188 28.5272C16.0772 28.0678 16.0087 27.5916 15.9328 27.1181C15.7725 26.1084 15.6544 25.0941 15.5681 24.0759C15.5316 23.6419 15.5109 23.205 15.4894 22.77C15.4659 22.2825 15.5194 21.7987 15.5662 21.315C15.6572 20.3719 15.8006 19.4363 16.0012 18.51C16.7944 14.8556 18.39 11.6025 20.8603 8.78625C21.3956 8.17594 21.9788 7.61344 22.5956 7.08656C22.8047 6.90844 23.0091 6.72562 23.1956 6.52406C23.5406 6.15 23.7525 5.71688 23.7778 5.20125C23.7797 5.17031 23.7816 5.13938 23.79 5.10938C23.7966 5.085 23.8172 5.06625 23.8425 5.06344C23.8716 5.06063 23.8866 5.08125 23.8941 5.10656C23.9109 5.16 23.9278 5.2125 23.9447 5.26594C23.9953 5.30719 24.015 5.36812 24.0441 5.4225C24.2709 5.84531 24.5034 6.26531 24.7191 6.69469C24.9684 7.19063 25.2984 7.62469 25.6875 8.01656C26.2275 8.56125 26.7488 9.12281 27.2503 9.70406C28.5703 11.2359 29.6419 12.9244 30.4762 14.7647C31.1466 16.2441 31.6997 17.7656 32.0719 19.3481C32.3081 20.3512 32.4516 21.3684 32.5106 22.3978C32.5612 23.2772 32.5584 24.1556 32.4947 25.0331V25.0312Z" fill="#FDFDFE"/>
</svg>
