<svg width="48" height="48" viewBox="0 0 48 48" fill="none" xmlns="http://www.w3.org/2000/svg">
<path d="M24 48C37.2548 48 48 37.2548 48 24C48 10.7452 37.2548 0 24 0C10.7452 0 0 10.7452 0 24C0 37.2548 10.7452 48 24 48Z" fill="#FDFDFE"/>
<path d="M40.6875 23.505V24.5091C40.6369 24.4781 40.6406 24.5241 40.6369 24.5484C40.4981 25.3247 40.1053 25.9659 39.5794 26.535C38.9803 27.1838 38.2622 27.6769 37.4953 28.1016C36.3253 28.7494 35.0784 29.2069 33.7978 29.5781C33.7125 29.6025 33.6759 29.6222 33.7022 29.7253C33.93 30.6356 34.1062 31.5553 34.2019 32.4891C34.3106 33.5616 34.3265 34.6313 34.1081 35.6934C33.9684 36.3769 33.7312 37.0219 33.314 37.59C32.8425 38.2322 32.22 38.6494 31.4428 38.8359C31.4072 38.8444 31.3406 38.8172 31.3462 38.8969H29.8687C29.8903 38.8303 29.8322 38.85 29.8078 38.8453C28.8787 38.6728 28.0359 38.2847 27.2306 37.8066C26.0662 37.1156 25.0331 36.2559 24.0609 35.3203C23.9794 35.2416 23.9372 35.2406 23.8547 35.3203C23.0822 36.0666 22.2675 36.7622 21.3759 37.365C20.3672 38.0466 19.3087 38.6213 18.0928 38.8472C18.0703 38.8509 18.0234 38.8453 18.0459 38.8969H16.5684C16.5422 38.8509 16.5422 38.85 16.5 38.8406C16.2272 38.7797 15.9656 38.6878 15.7181 38.5575C14.8894 38.1216 14.3756 37.4213 14.0559 36.5625C13.6556 35.4881 13.5984 34.3697 13.6547 33.2409C13.7128 32.0691 13.9144 30.9178 14.2022 29.7816C14.2397 29.6316 14.1937 29.5959 14.0653 29.5594C13.1625 29.3063 12.2822 28.9913 11.4272 28.605C10.5534 28.2103 9.71811 27.7491 8.97655 27.1341C8.14311 26.4441 7.47842 25.6397 7.27499 24.5353C7.27124 24.5166 7.2703 24.4688 7.22717 24.5091V23.505C7.27874 23.5294 7.27311 23.4825 7.27686 23.46C7.42686 22.6181 7.86842 21.9375 8.45717 21.3422C9.28592 20.5041 10.2872 19.9256 11.3456 19.4363C12.239 19.0238 13.1653 18.6984 14.1112 18.4275C14.1844 18.4069 14.2444 18.3984 14.2153 18.285C13.9837 17.3709 13.8075 16.4466 13.7128 15.5081C13.604 14.4366 13.589 13.3669 13.8075 12.3047C13.95 11.6119 14.1919 10.9594 14.6194 10.3866C15.0778 9.77344 15.6787 9.37031 16.4212 9.17906C16.455 9.17063 16.5234 9.19688 16.5122 9.11625H18.1012C18.0787 9.16781 18.1256 9.16125 18.1481 9.16594C19.02 9.33187 19.8159 9.69094 20.5762 10.1334C21.7837 10.8356 22.8515 11.7188 23.8537 12.6844C23.9362 12.7641 23.9765 12.765 24.059 12.6844C24.8194 11.9456 25.6247 11.2594 26.5022 10.6622C27.5044 9.97969 28.5581 9.40406 29.7647 9.16594C29.7872 9.16125 29.834 9.16781 29.8115 9.11625H31.4006C31.4212 9.16219 31.4203 9.16313 31.4644 9.17438C31.7128 9.23531 31.9528 9.31969 32.1806 9.43781C33.0169 9.87188 33.5344 10.5741 33.8569 11.4375C34.2562 12.5072 34.3144 13.62 34.26 14.745C34.2028 15.9356 33.9919 17.1037 33.7059 18.2587C33.6797 18.3656 33.7012 18.4013 33.8034 18.4294C34.5712 18.645 35.325 18.9028 36.06 19.2131C37.1719 19.6819 38.234 20.2378 39.1434 21.0459C39.8812 21.7003 40.454 22.4606 40.6369 23.4609C40.6406 23.4844 40.635 23.5303 40.6865 23.505H40.6875ZM24.0084 29.3869C24.9403 29.3794 25.9059 29.3503 26.8697 29.2819C26.9634 29.2753 27.0187 29.2453 27.0703 29.1675C28.1606 27.5494 29.1356 25.8656 29.9887 24.1106C30.0272 24.0309 30.029 23.9728 29.9897 23.8931C29.1356 22.1391 28.1606 20.4553 27.0722 18.8363C27.0187 18.7575 26.9606 18.7275 26.8697 18.7209C26.3044 18.6825 25.7381 18.6534 25.1719 18.6384C23.7872 18.6009 22.4034 18.6225 21.0215 18.7256C20.9381 18.7322 20.8884 18.7622 20.8444 18.8306C20.7103 19.0416 20.5678 19.2478 20.4309 19.4578C19.5056 20.8828 18.6684 22.3575 17.9269 23.8866C17.8969 23.9494 17.8687 24.0019 17.9072 24.0788C18.7725 25.8534 19.7559 27.5588 20.8622 29.1937C20.895 29.2425 20.9287 29.2716 20.9934 29.2762C21.9853 29.3466 22.979 29.3794 24.0075 29.385L24.0084 29.3869ZM15.09 33.7416C15.089 34.44 15.1322 35.0456 15.2869 35.6381C15.4153 36.1331 15.6056 36.6 15.9787 36.9666C16.4709 37.4494 17.0775 37.53 17.7253 37.4325C18.4134 37.3294 19.0425 37.0566 19.6462 36.7238C20.8265 36.0722 21.8522 35.2181 22.8272 34.2966C22.9209 34.2084 22.9331 34.1616 22.8394 34.0603C21.8756 33.0197 20.9981 31.9078 20.1769 30.7519C20.1197 30.6713 20.0512 30.6553 19.9669 30.6459C19.4409 30.5878 18.914 30.5372 18.39 30.465C17.5031 30.3422 16.6209 30.1884 15.7472 29.9888C15.6703 29.9709 15.6412 29.9841 15.6225 30.06C15.3225 31.2994 15.104 32.55 15.09 33.7416ZM39.2344 24.0066C39.2231 23.4853 39.0065 23.0569 38.6944 22.6687C38.3569 22.2478 37.9462 21.9075 37.499 21.6103C36.2269 20.7619 34.8131 20.2397 33.3572 19.8113C33.255 19.7813 33.2606 19.8488 33.2447 19.8994C32.8144 21.2719 32.2865 22.6078 31.6865 23.9147C31.6594 23.9728 31.6556 24.0216 31.6837 24.0834C32.2856 25.395 32.8162 26.7338 33.2437 28.1128C33.2681 28.1906 33.2972 28.2122 33.3787 28.1878C34.5244 27.8513 35.6447 27.4491 36.6965 26.8781C37.4231 26.4844 38.1065 26.0316 38.6456 25.3922C38.9859 24.9891 39.2231 24.54 39.2334 24.0066H39.2344ZM17.294 10.5366C17.1347 10.5328 16.9781 10.5497 16.8234 10.5825C16.1822 10.7203 15.78 11.1394 15.5165 11.7113C15.209 12.3769 15.1162 13.0894 15.0956 13.8122C15.0553 15.2156 15.2962 16.5853 15.6215 17.9437C15.6487 18.0562 15.7134 18.0216 15.7772 18.0075C17.1731 17.6916 18.5878 17.4909 20.0109 17.3494C20.0822 17.3419 20.1272 17.3194 20.1694 17.2603C21.0019 16.0894 21.8925 14.9653 22.8675 13.9097C22.9378 13.8337 22.9228 13.7962 22.8553 13.7353C22.5928 13.5 22.3387 13.2534 22.0725 13.0219C21.209 12.2691 20.2969 11.5847 19.2628 11.0803C18.6412 10.7775 17.9981 10.5478 17.295 10.5366H17.294ZM32.8256 33.8663C32.8116 32.5566 32.5922 31.3013 32.2912 30.0581C32.2715 29.9784 32.2387 29.9756 32.1647 29.9916C31.3762 30.1659 30.5831 30.3122 29.7834 30.4275C29.1815 30.5138 28.5778 30.5888 27.9731 30.6478C27.8944 30.6553 27.8128 30.6469 27.7519 30.7322C26.9156 31.9116 26.0184 33.0422 25.0378 34.1062C24.9853 34.1625 24.9834 34.1953 25.0406 34.2506C25.9978 35.1628 27.0065 36.0094 28.1615 36.6647C28.8684 37.065 29.6034 37.3941 30.4265 37.4597C31.2234 37.5234 31.8525 37.2394 32.2687 36.5372C32.3709 36.3647 32.4525 36.1838 32.5181 35.9953C32.7628 35.2978 32.819 34.5731 32.8247 33.8672L32.8256 33.8663ZM32.8228 14.16C32.8228 14.0953 32.8247 14.0297 32.8228 13.965C32.804 13.2234 32.73 12.4913 32.4365 11.8003C32.0287 10.8403 31.2965 10.4259 30.2728 10.56C29.5809 10.6509 28.95 10.9125 28.3434 11.2406C27.1115 11.9063 26.0484 12.795 25.0406 13.755C24.9684 13.8234 24.9994 13.8553 25.049 13.9088C26.0212 14.9672 26.9128 16.0894 27.7453 17.2603C27.7865 17.3184 27.8306 17.3438 27.9028 17.3503C28.679 17.4253 29.4525 17.52 30.2231 17.6438C30.869 17.7478 31.5122 17.865 32.1497 18.0103C32.2134 18.0253 32.2687 18.0413 32.2931 17.9428C32.5931 16.6988 32.8115 15.4444 32.8237 14.1609L32.8228 14.16ZM8.67936 23.9878C8.68311 24.4678 8.87249 24.8794 9.15655 25.2544C9.58217 25.815 10.1325 26.2312 10.7259 26.595C11.9137 27.3225 13.2094 27.795 14.5378 28.1888C14.6259 28.215 14.6475 28.1803 14.669 28.1091C15.0975 26.7309 15.6281 25.3913 16.23 24.0797C16.2553 24.0244 16.2562 23.9803 16.23 23.9241C15.6281 22.6125 15.0975 21.2738 14.669 19.8947C14.6428 19.8103 14.6128 19.7897 14.5247 19.8197C14.2837 19.9013 14.0372 19.9678 13.7944 20.0466C12.6459 20.4234 11.5322 20.8791 10.514 21.5428C9.96655 21.9 9.46217 22.3088 9.08249 22.8506C8.84342 23.1919 8.68874 23.5641 8.67842 23.9878H8.67936ZM22.0125 17.2078C23.3184 17.1544 24.5953 17.1553 25.8712 17.2059C25.8797 17.1591 25.8534 17.1422 25.8375 17.1216C25.2722 16.3781 24.6759 15.66 24.0506 14.9672C23.9756 14.8837 23.9381 14.8866 23.864 14.9681C23.3184 15.5709 22.799 16.1953 22.2965 16.8347C22.2056 16.95 22.1194 17.0681 22.0125 17.2078ZM17.1019 22.2909C17.7047 21.1275 18.3469 20.0241 19.0378 18.9319C18.9947 18.9319 18.9759 18.93 18.9572 18.9319C18.0122 19.05 17.0756 19.2122 16.1447 19.4119C16.0509 19.4316 16.0584 19.4738 16.0819 19.5469C16.3237 20.3119 16.6012 21.0638 16.9003 21.8081C16.9622 21.9619 17.0278 22.1137 17.1009 22.2909H17.1019ZM30.809 22.2844C30.8287 22.2441 30.84 22.2244 30.8484 22.2038C31.2131 21.3422 31.5365 20.4647 31.8244 19.5741C31.86 19.4644 31.8506 19.4278 31.7287 19.4025C31.035 19.2544 30.3365 19.1306 29.6353 19.0228C29.3906 18.9853 29.144 18.9563 28.8665 18.9197C29.5706 20.0269 30.21 21.1322 30.809 22.2844ZM28.8759 29.0709C28.9031 29.0756 28.9134 29.0784 28.9219 29.0775C29.8706 28.9584 30.8128 28.7972 31.7475 28.5966C31.8394 28.5769 31.8637 28.5525 31.8309 28.4513C31.6172 27.7894 31.3856 27.1341 31.1278 26.4881C31.0275 26.2359 30.9253 25.9838 30.8137 25.7081C30.2081 26.8734 29.5669 27.9816 28.875 29.07L28.8759 29.0709ZM17.1037 25.7184C17.0831 25.7625 17.0728 25.7822 17.0644 25.8028C16.7015 26.6606 16.3819 27.5344 16.0912 28.4194C16.0481 28.5506 16.0865 28.5806 16.2047 28.605C16.8581 28.7409 17.5144 28.8628 18.1753 28.9641C18.4565 29.0072 18.7387 29.0419 19.0472 29.085C18.69 28.5188 18.3562 27.9741 18.0375 27.4209C17.7178 26.8669 17.4103 26.3063 17.1047 25.7194L17.1037 25.7184ZM25.9031 30.795C24.5944 30.8541 23.3156 30.8503 22.0125 30.7969C22.6219 31.6013 23.2425 32.3513 23.8987 33.0722C23.9447 33.1228 23.969 33.1237 24.0159 33.0722C24.6722 32.3513 25.2928 31.6013 25.9031 30.795Z" fill="#60D8F9"/>
<path d="M23.9682 21.0216C25.6172 21.0272 26.9457 22.3669 26.9391 24.0169C26.9335 25.6538 25.59 26.9897 23.9522 26.9859C22.3013 26.9822 20.9654 25.6341 20.9738 23.9794C20.9822 22.3406 22.3238 21.015 23.9682 21.0206V21.0216Z" fill="#60D8F9"/>
</svg>
